<svg width="102" height="73" viewBox="0 0 102 73" fill="none" xmlns="http://www.w3.org/2000/svg">
<path d="M59.315 51.7108C59.3158 56.3605 60.8385 60.8821 63.6505 64.585C66.4626 68.2879 70.4095 70.9685 74.8883 72.2175C79.367 73.4664 84.1315 73.215 88.454 71.5016C92.7764 69.7882 96.4192 66.7071 98.826 62.7288C101.233 58.7505 102.271 54.0937 101.782 49.4698C101.294 44.8459 99.3052 40.509 96.1201 37.1216C92.935 33.7341 88.7287 31.4824 84.1436 30.7103C79.5585 29.9381 74.8467 30.6881 70.7279 32.8455C72.1514 27.5649 74.159 23.1421 76.5621 19.6136C81.3681 12.5444 87.6647 9.12544 94.2958 9.12544C95.5059 9.12544 96.6665 8.64472 97.5222 7.78905C98.3778 6.93337 98.8586 5.77283 98.8586 4.56272C98.8586 3.35261 98.3778 2.19207 97.5222 1.3364C96.6665 0.480713 95.5059 0 94.2958 0C84.1301 0 75.2115 5.37184 69.0123 14.479C62.8678 23.5193 59.315 36.2767 59.315 51.7108Z" fill="#262626"/>
<path d="M0.000534058 51.7108C0.00130081 56.3605 1.52402 60.8821 4.33609 64.585C7.14817 68.2879 11.095 70.9685 15.5738 72.2175C20.0526 73.4664 24.8171 73.215 29.1395 71.5016C33.462 69.7882 37.1048 66.7071 39.5115 62.7288C41.9183 58.7505 42.9566 54.0937 42.468 49.4698C41.9794 44.8459 39.9907 40.509 36.8056 37.1216C33.6206 33.7341 29.4142 31.4824 24.8292 30.7103C20.2441 29.9381 15.5322 30.6881 11.4134 32.8455C12.837 27.5649 14.8446 23.1421 17.2476 19.6136C22.0537 12.5444 28.3502 9.12544 34.9814 9.12544C36.1915 9.12544 37.352 8.64472 38.2077 7.78905C39.0634 6.93337 39.5441 5.77283 39.5441 4.56272C39.5441 3.35261 39.0634 2.19207 38.2077 1.3364C37.352 0.480713 36.1915 0 34.9814 0C24.8156 0 15.897 5.37184 9.69783 14.479C3.55337 23.5193 0.000534058 36.2767 0.000534058 51.7108Z" fill="#262626"/>
</svg>
