<svg width="666" height="492" viewBox="0 0 666 492" fill="none" xmlns="http://www.w3.org/2000/svg">
<g clip-path="url(#clip0_135_967)" filter="url(#filter0_d_135_967)">
<path d="M385.635 92.7977C397.592 92.7977 407.285 83.1049 407.285 71.1481C407.285 59.1914 397.592 49.4985 385.635 49.4985C373.678 49.4985 363.984 59.1914 363.984 71.1481C363.984 83.1049 373.678 92.7977 385.635 92.7977Z" fill="#F2F2F2"/>
<path d="M553.584 414.103C585.765 389.592 601.136 348.405 591.513 309.115C591.274 308.139 591.022 307.165 590.756 306.193C584.377 282.871 568.594 260.705 545.591 253.253C526.277 246.996 505.195 251.808 485.045 249.32C445.49 244.435 414.824 212.432 393.247 178.925C371.669 145.417 355.086 107.91 326.414 80.2278C279.154 34.5984 202.06 24.7744 143.463 54.4757C84.8665 84.1771 47.5411 150.072 49.133 215.745C50.7249 281.417 89.7135 344.205 146.335 377.518C167.135 389.755 191.192 398.425 215.135 395.391C235.909 392.759 254.785 381.597 275.461 378.283C307.97 373.073 340.271 387.771 368.388 404.898C396.505 422.024 423.664 442.325 455.616 450.265C486.64 457.975 525.077 435.815 553.584 414.103Z" fill="#F2F2F2"/>
<path d="M507.348 55.8548C506.643 55.3845 505.929 54.9385 505.224 54.4845C484.831 41.443 462.974 30.8482 440.104 22.9191L434.801 96.0716H401.182V12.2406C399.066 11.8027 396.934 11.3892 394.801 11V96.0716H354.85C332.856 96.0716 311.764 87.3351 296.212 71.7841C280.66 56.233 271.923 35.1413 271.923 13.1488V13.1487C269.783 13.6109 267.658 14.1055 265.534 14.6325V96.0716H232.994L227.942 26.3165C204.439 35.3298 182.127 47.1828 161.501 61.6116C161.144 61.8549 160.787 62.1062 160.438 62.3495C158.646 63.6062 156.879 64.8873 155.119 66.1847V345.262H251.019L249.325 321.789L240 192.908H427.787L418.462 321.789L416.767 345.262H511.605V58.6764C510.194 57.7197 508.775 56.7791 507.348 55.8548ZM265.534 171.624H238.459L233.456 102.461H265.534V171.624ZM394.801 171.624H349.328V170.254C349.328 169.595 349.198 168.943 348.946 168.334C348.694 167.726 348.324 167.173 347.857 166.708C347.391 166.242 346.838 165.873 346.229 165.622C345.62 165.371 344.968 165.242 344.309 165.243H324.54C323.882 165.243 323.23 165.372 322.622 165.624C322.014 165.876 321.461 166.245 320.996 166.71C320.531 167.175 320.162 167.728 319.91 168.336C319.658 168.944 319.529 169.596 319.529 170.254V171.624H271.923V102.461H394.801V171.624ZM401.182 171.624V102.461H434.338L429.335 171.624H401.182Z" fill="#3F3D56"/>
<path d="M14 363.133C21.0441 371.48 28.6632 379.323 36.8014 386.607L629.199 387.417C637.337 380.134 644.956 372.29 652 363.944L14 363.133Z" fill="#3F3D56"/>
<path d="M415.725 287.97V357.461C415.725 358.347 416.077 359.196 416.704 359.822C417.33 360.448 418.179 360.8 419.065 360.801H522.047C522.933 360.8 523.782 360.448 524.408 359.822C525.034 359.196 525.387 358.347 525.387 357.461V287.97C525.385 287.086 525.032 286.238 524.406 285.612C523.78 284.987 522.932 284.635 522.047 284.634H419.065C418.18 284.635 417.331 284.987 416.705 285.612C416.079 286.238 415.727 287.086 415.725 287.97Z" fill="#3F3D56"/>
<path d="M418.141 288.835V356.604C418.141 357.077 418.33 357.531 418.664 357.865C418.999 358.2 419.452 358.388 419.926 358.389H521.19C521.663 358.388 522.117 358.2 522.451 357.865C522.786 357.531 522.974 357.077 522.975 356.604V288.835C522.975 288.361 522.787 287.907 522.453 287.572C522.118 287.236 521.664 287.047 521.19 287.046H419.926C419.452 287.047 418.998 287.236 418.663 287.572C418.329 287.907 418.141 288.361 418.141 288.835Z" fill="#3426F8"/>
<path d="M413.57 371.014C413.758 371.25 413.998 371.441 414.271 371.572C414.544 371.702 414.843 371.769 415.145 371.768H525.416C525.717 371.767 526.015 371.7 526.287 371.57C526.559 371.44 526.799 371.251 526.989 371.017C527.179 370.783 527.314 370.509 527.385 370.216C527.456 369.923 527.461 369.618 527.399 369.323L525.687 361.192C525.616 360.861 525.464 360.552 525.243 360.295C525.022 360.037 524.741 359.839 524.424 359.718C524.195 359.628 523.95 359.582 523.704 359.583H416.85C416.604 359.582 416.36 359.628 416.13 359.718C415.813 359.839 415.532 360.037 415.311 360.295C415.091 360.552 414.938 360.861 414.867 361.192L413.155 369.323C413.094 369.618 413.1 369.922 413.172 370.215C413.243 370.508 413.379 370.78 413.57 371.014Z" fill="#2F2E41"/>
<path d="M519.921 363.084H522.526C522.745 363.084 522.922 362.907 522.922 362.688V361.442C522.922 361.224 522.745 361.046 522.526 361.046H519.921C519.703 361.046 519.526 361.224 519.526 361.442V362.688C519.526 362.907 519.703 363.084 519.921 363.084Z" fill="#3F3D56"/>
<path d="M513.128 363.084H515.733C515.952 363.084 516.129 362.907 516.129 362.688V361.442C516.129 361.224 515.952 361.046 515.733 361.046H513.128C512.91 361.046 512.733 361.224 512.733 361.442V362.688C512.733 362.907 512.91 363.084 513.128 363.084Z" fill="#3F3D56"/>
<path d="M506.336 363.084H508.94C509.159 363.084 509.336 362.907 509.336 362.688V361.442C509.336 361.224 509.159 361.046 508.94 361.046H506.336C506.117 361.046 505.94 361.224 505.94 361.442V362.688C505.94 362.907 506.117 363.084 506.336 363.084Z" fill="#3F3D56"/>
<path d="M499.543 363.084H502.147C502.366 363.084 502.543 362.907 502.543 362.688V361.442C502.543 361.224 502.366 361.046 502.147 361.046H499.543C499.324 361.046 499.147 361.224 499.147 361.442V362.688C499.147 362.907 499.324 363.084 499.543 363.084Z" fill="#3F3D56"/>
<path d="M492.752 363.084H495.356C495.575 363.084 495.752 362.907 495.752 362.688V361.442C495.752 361.224 495.575 361.046 495.356 361.046H492.752C492.533 361.046 492.356 361.224 492.356 361.442V362.688C492.356 362.907 492.533 363.084 492.752 363.084Z" fill="#3F3D56"/>
<path d="M485.959 363.084H488.563C488.782 363.084 488.959 362.907 488.959 362.688V361.442C488.959 361.224 488.782 361.046 488.563 361.046H485.959C485.74 361.046 485.563 361.224 485.563 361.442V362.688C485.563 362.907 485.74 363.084 485.959 363.084Z" fill="#3F3D56"/>
<path d="M479.166 363.084H481.77C481.989 363.084 482.166 362.907 482.166 362.688V361.442C482.166 361.224 481.989 361.046 481.77 361.046H479.166C478.947 361.046 478.77 361.224 478.77 361.442V362.688C478.77 362.907 478.947 363.084 479.166 363.084Z" fill="#3F3D56"/>
<path d="M472.373 363.084H474.977C475.196 363.084 475.373 362.907 475.373 362.688V361.442C475.373 361.224 475.196 361.046 474.977 361.046H472.373C472.154 361.046 471.977 361.224 471.977 361.442V362.688C471.977 362.907 472.154 363.084 472.373 363.084Z" fill="#3F3D56"/>
<path d="M465.58 363.084H468.184C468.403 363.084 468.58 362.907 468.58 362.688V361.442C468.58 361.224 468.403 361.046 468.184 361.046H465.58C465.361 361.046 465.184 361.224 465.184 361.442V362.688C465.184 362.907 465.361 363.084 465.58 363.084Z" fill="#3F3D56"/>
<path d="M458.789 363.084H461.393C461.612 363.084 461.789 362.907 461.789 362.688V361.442C461.789 361.224 461.612 361.046 461.393 361.046H458.789C458.57 361.046 458.393 361.224 458.393 361.442V362.688C458.393 362.907 458.57 363.084 458.789 363.084Z" fill="#3F3D56"/>
<path d="M451.996 363.084H454.6C454.819 363.084 454.996 362.907 454.996 362.688V361.442C454.996 361.224 454.819 361.046 454.6 361.046H451.996C451.777 361.046 451.6 361.224 451.6 361.442V362.688C451.6 362.907 451.777 363.084 451.996 363.084Z" fill="#3F3D56"/>
<path d="M445.203 363.084H447.807C448.026 363.084 448.203 362.907 448.203 362.688V361.442C448.203 361.224 448.026 361.046 447.807 361.046H445.203C444.984 361.046 444.807 361.224 444.807 361.442V362.688C444.807 362.907 444.984 363.084 445.203 363.084Z" fill="#3F3D56"/>
<path d="M438.41 363.084H441.014C441.233 363.084 441.41 362.907 441.41 362.688V361.442C441.41 361.224 441.233 361.046 441.014 361.046H438.41C438.191 361.046 438.014 361.224 438.014 361.442V362.688C438.014 362.907 438.191 363.084 438.41 363.084Z" fill="#3F3D56"/>
<path d="M431.617 363.084H434.221C434.44 363.084 434.617 362.907 434.617 362.688V361.442C434.617 361.224 434.44 361.046 434.221 361.046H431.617C431.398 361.046 431.221 361.224 431.221 361.442V362.688C431.221 362.907 431.398 363.084 431.617 363.084Z" fill="#3F3D56"/>
<path d="M424.826 363.084H427.43C427.649 363.084 427.826 362.907 427.826 362.688V361.442C427.826 361.224 427.649 361.046 427.43 361.046H424.826C424.607 361.046 424.43 361.224 424.43 361.442V362.688C424.43 362.907 424.607 363.084 424.826 363.084Z" fill="#3F3D56"/>
<path d="M418.033 363.084H420.637C420.856 363.084 421.033 362.907 421.033 362.688V361.442C421.033 361.224 420.856 361.046 420.637 361.046H418.033C417.814 361.046 417.637 361.224 417.637 361.442V362.688C417.637 362.907 417.814 363.084 418.033 363.084Z" fill="#3F3D56"/>
<path d="M520.002 366.48H522.606C522.825 366.48 523.002 366.303 523.002 366.085V364.839C523.002 364.62 522.825 364.443 522.606 364.443H520.002C519.783 364.443 519.606 364.62 519.606 364.839V366.085C519.606 366.303 519.783 366.48 520.002 366.48Z" fill="#3F3D56"/>
<path d="M513.209 366.48H515.813C516.032 366.48 516.209 366.303 516.209 366.085V364.839C516.209 364.62 516.032 364.443 515.813 364.443H513.209C512.99 364.443 512.813 364.62 512.813 364.839V366.085C512.813 366.303 512.99 366.48 513.209 366.48Z" fill="#3F3D56"/>
<path d="M506.416 366.48H509.02C509.239 366.48 509.416 366.303 509.416 366.085V364.839C509.416 364.62 509.239 364.443 509.02 364.443H506.416C506.197 364.443 506.02 364.62 506.02 364.839V366.085C506.02 366.303 506.197 366.48 506.416 366.48Z" fill="#3F3D56"/>
<path d="M499.623 366.48H502.227C502.446 366.48 502.623 366.303 502.623 366.085V364.839C502.623 364.62 502.446 364.443 502.227 364.443H499.623C499.404 364.443 499.227 364.62 499.227 364.839V366.085C499.227 366.303 499.404 366.48 499.623 366.48Z" fill="#3F3D56"/>
<path d="M492.832 366.48H495.436C495.655 366.48 495.832 366.303 495.832 366.085V364.839C495.832 364.62 495.655 364.443 495.436 364.443H492.832C492.613 364.443 492.436 364.62 492.436 364.839V366.085C492.436 366.303 492.613 366.48 492.832 366.48Z" fill="#3F3D56"/>
<path d="M486.039 366.48H488.643C488.862 366.48 489.039 366.303 489.039 366.085V364.839C489.039 364.62 488.862 364.443 488.643 364.443H486.039C485.82 364.443 485.643 364.62 485.643 364.839V366.085C485.643 366.303 485.82 366.48 486.039 366.48Z" fill="#3F3D56"/>
<path d="M479.246 366.48H481.85C482.069 366.48 482.246 366.303 482.246 366.085V364.839C482.246 364.62 482.069 364.443 481.85 364.443H479.246C479.027 364.443 478.85 364.62 478.85 364.839V366.085C478.85 366.303 479.027 366.48 479.246 366.48Z" fill="#3F3D56"/>
<path d="M472.453 366.48H475.057C475.276 366.48 475.453 366.303 475.453 366.085V364.839C475.453 364.62 475.276 364.443 475.057 364.443H472.453C472.234 364.443 472.057 364.62 472.057 364.839V366.085C472.057 366.303 472.234 366.48 472.453 366.48Z" fill="#3F3D56"/>
<path d="M465.66 366.48H468.264C468.483 366.48 468.66 366.303 468.66 366.085V364.839C468.66 364.62 468.483 364.443 468.264 364.443H465.66C465.441 364.443 465.264 364.62 465.264 364.839V366.085C465.264 366.303 465.441 366.48 465.66 366.48Z" fill="#3F3D56"/>
<path d="M458.869 366.48H461.473C461.692 366.48 461.869 366.303 461.869 366.085V364.839C461.869 364.62 461.692 364.443 461.473 364.443H458.869C458.65 364.443 458.473 364.62 458.473 364.839V366.085C458.473 366.303 458.65 366.48 458.869 366.48Z" fill="#3F3D56"/>
<path d="M452.076 366.48H454.68C454.899 366.48 455.076 366.303 455.076 366.085V364.839C455.076 364.62 454.899 364.443 454.68 364.443H452.076C451.857 364.443 451.68 364.62 451.68 364.839V366.085C451.68 366.303 451.857 366.48 452.076 366.48Z" fill="#3F3D56"/>
<path d="M445.283 366.48H447.887C448.106 366.48 448.283 366.303 448.283 366.085V364.839C448.283 364.62 448.106 364.443 447.887 364.443H445.283C445.064 364.443 444.887 364.62 444.887 364.839V366.085C444.887 366.303 445.064 366.48 445.283 366.48Z" fill="#3F3D56"/>
<path d="M438.49 366.48H441.094C441.313 366.48 441.49 366.303 441.49 366.085V364.839C441.49 364.62 441.313 364.443 441.094 364.443H438.49C438.271 364.443 438.094 364.62 438.094 364.839V366.085C438.094 366.303 438.271 366.48 438.49 366.48Z" fill="#3F3D56"/>
<path d="M431.699 366.48H434.303C434.522 366.48 434.699 366.303 434.699 366.085V364.839C434.699 364.62 434.522 364.443 434.303 364.443H431.699C431.48 364.443 431.303 364.62 431.303 364.839V366.085C431.303 366.303 431.48 366.48 431.699 366.48Z" fill="#3F3D56"/>
<path d="M424.906 366.48H427.51C427.729 366.48 427.906 366.303 427.906 366.085V364.839C427.906 364.62 427.729 364.443 427.51 364.443H424.906C424.687 364.443 424.51 364.62 424.51 364.839V366.085C424.51 366.303 424.687 366.48 424.906 366.48Z" fill="#3F3D56"/>
<path d="M418.113 366.48H420.717C420.936 366.48 421.113 366.303 421.113 366.085V364.839C421.113 364.62 420.936 364.443 420.717 364.443H418.113C417.894 364.443 417.717 364.62 417.717 364.839V366.085C417.717 366.303 417.894 366.48 418.113 366.48Z" fill="#3F3D56"/>
<path d="M463.622 370.556H490.001C490.219 370.556 490.396 370.378 490.396 370.16V368.914C490.396 368.695 490.219 368.518 490.001 368.518H463.622C463.404 368.518 463.226 368.695 463.226 368.914V370.16C463.226 370.378 463.404 370.556 463.622 370.556Z" fill="#3F3D56"/>
<path d="M435.675 301.873H433.369C432.67 301.873 432.104 302.439 432.104 303.138C432.104 303.837 432.67 304.404 433.369 304.404H435.675C436.374 304.404 436.941 303.837 436.941 303.138C436.941 302.439 436.374 301.873 435.675 301.873Z" fill="white"/>
<path d="M462.048 301.873H459.742C459.043 301.873 458.477 302.439 458.477 303.138C458.477 303.837 459.043 304.404 459.742 304.404H462.048C462.747 304.404 463.314 303.837 463.314 303.138C463.314 302.439 462.747 301.873 462.048 301.873Z" fill="white"/>
<path d="M469.519 301.873H467.213C466.514 301.873 465.947 302.439 465.947 303.138C465.947 303.837 466.514 304.404 467.213 304.404H469.519C470.218 304.404 470.785 303.837 470.785 303.138C470.785 302.439 470.218 301.873 469.519 301.873Z" fill="white"/>
<path d="M454.874 301.662H440.543C439.844 301.662 439.277 302.228 439.277 302.927C439.277 303.626 439.844 304.193 440.543 304.193H454.874C455.573 304.193 456.14 303.626 456.14 302.927C456.14 302.228 455.573 301.662 454.874 301.662Z" fill="white"/>
<path d="M490.036 301.662H475.705C475.006 301.662 474.439 302.228 474.439 302.927C474.439 303.626 475.006 304.193 475.705 304.193H490.036C490.735 304.193 491.302 303.626 491.302 302.927C491.302 302.228 490.735 301.662 490.036 301.662Z" fill="white"/>
<path d="M442.708 307.586H440.403C439.703 307.586 439.137 308.153 439.137 308.852C439.137 309.551 439.703 310.117 440.403 310.117H442.708C443.407 310.117 443.974 309.551 443.974 308.852C443.974 308.153 443.407 307.586 442.708 307.586Z" fill="white"/>
<path d="M469.079 307.586H466.774C466.075 307.586 465.508 308.153 465.508 308.852C465.508 309.551 466.075 310.117 466.774 310.117H469.079C469.779 310.117 470.345 309.551 470.345 308.852C470.345 308.153 469.779 307.586 469.079 307.586Z" fill="white"/>
<path d="M476.552 307.586H474.246C473.547 307.586 472.98 308.153 472.98 308.852C472.98 309.551 473.547 310.117 474.246 310.117H476.552C477.251 310.117 477.818 309.551 477.818 308.852C477.818 308.153 477.251 307.586 476.552 307.586Z" fill="white"/>
<path d="M461.907 307.375H447.576C446.877 307.375 446.311 307.942 446.311 308.641C446.311 309.34 446.877 309.907 447.576 309.907H461.907C462.607 309.907 463.173 309.34 463.173 308.641C463.173 307.942 462.607 307.375 461.907 307.375Z" fill="white"/>
<path d="M497.07 307.375H482.738C482.039 307.375 481.473 307.942 481.473 308.641C481.473 309.34 482.039 309.907 482.738 309.907H497.07C497.769 309.907 498.335 309.34 498.335 308.641C498.335 307.942 497.769 307.375 497.07 307.375Z" fill="white"/>
<path d="M449.74 313.3H447.434C446.735 313.3 446.168 313.866 446.168 314.566C446.168 315.265 446.735 315.831 447.434 315.831H449.74C450.439 315.831 451.005 315.265 451.005 314.566C451.005 313.866 450.439 313.3 449.74 313.3Z" fill="white"/>
<path d="M476.113 313.3H473.807C473.108 313.3 472.541 313.866 472.541 314.566C472.541 315.265 473.108 315.831 473.807 315.831H476.113C476.812 315.831 477.378 315.265 477.378 314.566C477.378 313.866 476.812 313.3 476.113 313.3Z" fill="white"/>
<path d="M483.583 313.3H481.278C480.578 313.3 480.012 313.866 480.012 314.566C480.012 315.265 480.578 315.831 481.278 315.831H483.583C484.282 315.831 484.849 315.265 484.849 314.566C484.849 313.866 484.282 313.3 483.583 313.3Z" fill="white"/>
<path d="M468.939 313.088H454.608C453.908 313.088 453.342 313.655 453.342 314.354C453.342 315.053 453.908 315.62 454.608 315.62H468.939C469.638 315.62 470.204 315.053 470.204 314.354C470.204 313.655 469.638 313.088 468.939 313.088Z" fill="white"/>
<path d="M504.101 313.088H489.77C489.071 313.088 488.504 313.655 488.504 314.354C488.504 315.053 489.071 315.62 489.77 315.62H504.101C504.8 315.62 505.367 315.053 505.367 314.354C505.367 313.655 504.8 313.088 504.101 313.088Z" fill="white"/>
<path d="M456.773 319.013H454.467C453.768 319.013 453.201 319.58 453.201 320.279C453.201 320.978 453.768 321.545 454.467 321.545H456.773C457.472 321.545 458.039 320.978 458.039 320.279C458.039 319.58 457.472 319.013 456.773 319.013Z" fill="white"/>
<path d="M483.144 319.013H480.838C480.139 319.013 479.572 319.58 479.572 320.279C479.572 320.978 480.139 321.545 480.838 321.545H483.144C483.843 321.545 484.41 320.978 484.41 320.279C484.41 319.58 483.843 319.013 483.144 319.013Z" fill="white"/>
<path d="M490.617 319.013H488.311C487.612 319.013 487.045 319.58 487.045 320.279C487.045 320.978 487.612 321.545 488.311 321.545H490.617C491.316 321.545 491.882 320.978 491.882 320.279C491.882 319.58 491.316 319.013 490.617 319.013Z" fill="white"/>
<path d="M475.972 318.802H461.641C460.942 318.802 460.375 319.369 460.375 320.068C460.375 320.767 460.942 321.334 461.641 321.334H475.972C476.671 321.334 477.238 320.767 477.238 320.068C477.238 319.369 476.671 318.802 475.972 318.802Z" fill="white"/>
<path d="M462.048 341.733H459.742C459.043 341.733 458.477 342.3 458.477 342.999C458.477 343.698 459.043 344.264 459.742 344.264H462.048C462.747 344.264 463.314 343.698 463.314 342.999C463.314 342.3 462.747 341.733 462.048 341.733Z" fill="white"/>
<path d="M469.519 341.733H467.213C466.514 341.733 465.947 342.3 465.947 342.999C465.947 343.698 466.514 344.264 467.213 344.264H469.519C470.218 344.264 470.785 343.698 470.785 342.999C470.785 342.3 470.218 341.733 469.519 341.733Z" fill="white"/>
<path d="M490.036 341.944H475.705C475.006 341.944 474.439 342.511 474.439 343.21C474.439 343.909 475.006 344.475 475.705 344.475H490.036C490.735 344.475 491.302 343.909 491.302 343.21C491.302 342.511 490.735 341.944 490.036 341.944Z" fill="white"/>
<path d="M435.675 341.733H433.369C432.67 341.733 432.104 342.3 432.104 342.999C432.104 343.698 432.67 344.264 433.369 344.264H435.675C436.374 344.264 436.941 343.698 436.941 342.999C436.941 342.3 436.374 341.733 435.675 341.733Z" fill="white"/>
<path d="M454.874 341.944H440.543C439.844 341.944 439.277 342.511 439.277 343.21C439.277 343.909 439.844 344.475 440.543 344.475H454.874C455.573 344.475 456.14 343.909 456.14 343.21C456.14 342.511 455.573 341.944 454.874 341.944Z" fill="white"/>
<path d="M442.708 336.02H440.403C439.703 336.02 439.137 336.586 439.137 337.285C439.137 337.984 439.703 338.551 440.403 338.551H442.708C443.407 338.551 443.974 337.984 443.974 337.285C443.974 336.586 443.407 336.02 442.708 336.02Z" fill="white"/>
<path d="M469.079 336.02H466.774C466.075 336.02 465.508 336.586 465.508 337.285C465.508 337.984 466.075 338.551 466.774 338.551H469.079C469.779 338.551 470.345 337.984 470.345 337.285C470.345 336.586 469.779 336.02 469.079 336.02Z" fill="white"/>
<path d="M476.552 336.02H474.246C473.547 336.02 472.98 336.586 472.98 337.285C472.98 337.984 473.547 338.551 474.246 338.551H476.552C477.251 338.551 477.818 337.984 477.818 337.285C477.818 336.586 477.251 336.02 476.552 336.02Z" fill="white"/>
<path d="M461.907 336.23H447.576C446.877 336.23 446.311 336.797 446.311 337.496C446.311 338.195 446.877 338.762 447.576 338.762H461.907C462.607 338.762 463.173 338.195 463.173 337.496C463.173 336.797 462.607 336.23 461.907 336.23Z" fill="white"/>
<path d="M449.74 330.306H447.434C446.735 330.306 446.168 330.872 446.168 331.571C446.168 332.27 446.735 332.837 447.434 332.837H449.74C450.439 332.837 451.005 332.27 451.005 331.571C451.005 330.872 450.439 330.306 449.74 330.306Z" fill="white"/>
<path d="M476.113 330.306H473.807C473.108 330.306 472.541 330.872 472.541 331.571C472.541 332.27 473.108 332.837 473.807 332.837H476.113C476.812 332.837 477.378 332.27 477.378 331.571C477.378 330.872 476.812 330.306 476.113 330.306Z" fill="white"/>
<path d="M483.583 330.306H481.278C480.578 330.306 480.012 330.872 480.012 331.571C480.012 332.27 480.578 332.837 481.278 332.837H483.583C484.282 332.837 484.849 332.27 484.849 331.571C484.849 330.872 484.282 330.306 483.583 330.306Z" fill="white"/>
<path d="M468.939 330.517H454.608C453.908 330.517 453.342 331.083 453.342 331.782C453.342 332.481 453.908 333.048 454.608 333.048H468.939C469.638 333.048 470.204 332.481 470.204 331.782C470.204 331.083 469.638 330.517 468.939 330.517Z" fill="white"/>
<path d="M456.773 324.592H454.467C453.768 324.592 453.201 325.159 453.201 325.858C453.201 326.557 453.768 327.124 454.467 327.124H456.773C457.472 327.124 458.039 326.557 458.039 325.858C458.039 325.159 457.472 324.592 456.773 324.592Z" fill="white"/>
<path d="M483.144 324.592H480.838C480.139 324.592 479.572 325.159 479.572 325.858C479.572 326.557 480.139 327.124 480.838 327.124H483.144C483.843 327.124 484.41 326.557 484.41 325.858C484.41 325.159 483.843 324.592 483.144 324.592Z" fill="white"/>
<path d="M490.617 324.592H488.311C487.612 324.592 487.045 325.159 487.045 325.858C487.045 326.557 487.612 327.124 488.311 327.124H490.617C491.316 327.124 491.882 326.557 491.882 325.858C491.882 325.159 491.316 324.592 490.617 324.592Z" fill="white"/>
<path d="M475.972 324.803H461.641C460.942 324.803 460.375 325.37 460.375 326.069C460.375 326.768 460.942 327.335 461.641 327.335H475.972C476.671 327.335 477.238 326.768 477.238 326.069C477.238 325.37 476.671 324.803 475.972 324.803Z" fill="white"/>
<path d="M423.416 408.694L412.592 391.584L446.568 364.5L460.592 348.964C462.414 346.946 464.734 345.441 467.32 344.6C469.906 343.759 472.667 343.611 475.328 344.171C477.989 344.732 480.456 345.981 482.483 347.793C484.51 349.606 486.026 351.919 486.879 354.5C488.143 358.326 487.871 362.494 486.121 366.123C484.37 369.753 481.278 372.56 477.497 373.953L455.321 382.122L423.416 408.694Z" fill="#FFB6B6"/>
<path d="M169.434 284.637V367.795H227.694V284.637C227.695 284.039 227.504 283.456 227.149 282.975C226.795 282.493 226.295 282.138 225.723 281.961C225.454 281.872 225.172 281.829 224.888 281.832H172.247C171.878 281.831 171.513 281.903 171.172 282.044C170.83 282.184 170.52 282.391 170.259 282.651C169.998 282.912 169.79 283.221 169.649 283.562C169.507 283.903 169.434 284.268 169.434 284.637ZM192.17 313.211C192.185 311.571 192.847 310.004 194.012 308.85C195.177 307.696 196.75 307.049 198.389 307.049C200.029 307.049 201.602 307.696 202.767 308.85C203.931 310.004 204.593 311.571 204.609 313.211V322.859C204.6 324.503 203.941 326.077 202.776 327.236C201.61 328.396 200.033 329.047 198.389 329.047C196.745 329.047 195.168 328.396 194.003 327.236C192.837 326.077 192.178 324.503 192.17 322.859V313.211Z" fill="#2F2E41"/>
<path d="M169.256 365.136V373.155C169.257 373.57 169.422 373.968 169.715 374.263C170.008 374.557 170.405 374.724 170.821 374.728H226.308C226.724 374.726 227.122 374.559 227.415 374.264C227.708 373.969 227.873 373.571 227.873 373.155V365.136H169.256Z" fill="#3F3D56"/>
<path d="M77.7812 159.349V311.184C77.7828 313.119 78.5521 314.974 79.9204 316.342C81.2887 317.71 83.144 318.479 85.079 318.481H310.092C312.027 318.479 313.883 317.71 315.251 316.342C316.619 314.974 317.389 313.119 317.39 311.184V159.349C317.385 157.416 316.615 155.563 315.247 154.197C313.879 152.831 312.026 152.062 310.092 152.06H85.079C83.1457 152.062 81.2921 152.831 79.9243 154.197C78.5565 155.563 77.7859 157.416 77.7812 159.349Z" fill="#3F3D56"/>
<path d="M83.0605 161.238V309.311C83.0623 310.345 83.4738 311.336 84.2049 312.067C84.9359 312.798 85.9269 313.209 86.9608 313.211H308.22C309.254 313.209 310.245 312.798 310.976 312.067C311.707 311.336 312.118 310.345 312.12 309.311V161.238C312.12 160.203 311.709 159.21 310.978 158.478C310.247 157.745 309.255 157.332 308.22 157.33H86.9608C85.9257 157.332 84.9337 157.745 84.2025 158.478C83.4713 159.21 83.0607 160.203 83.0605 161.238Z" fill="white"/>
<path d="M124.123 374.185C124.348 374.467 124.634 374.695 124.96 374.851C125.286 375.006 125.643 375.087 126.004 375.085H257.639C257.999 375.084 258.354 375.004 258.679 374.849C259.004 374.693 259.29 374.468 259.517 374.188C259.744 373.909 259.905 373.582 259.99 373.232C260.075 372.882 260.08 372.518 260.007 372.166L257.963 362.46C257.878 362.064 257.696 361.696 257.433 361.389C257.169 361.081 256.833 360.845 256.455 360.701C256.181 360.593 255.89 360.538 255.595 360.539H128.039C127.745 360.538 127.453 360.593 127.18 360.701C126.801 360.845 126.465 361.081 126.202 361.389C125.938 361.696 125.756 362.064 125.671 362.46L123.628 372.166C123.555 372.518 123.562 372.882 123.648 373.231C123.733 373.58 123.895 373.906 124.123 374.185Z" fill="#2F2E41"/>
<path d="M301.04 177.728H94.0083C93.7932 177.723 93.5884 177.634 93.4379 177.48C93.2874 177.326 93.2031 177.12 93.2031 176.904C93.2031 176.689 93.2874 176.482 93.4379 176.329C93.5884 176.175 93.7932 176.086 94.0083 176.081H301.04C301.255 176.086 301.46 176.175 301.61 176.329C301.761 176.482 301.845 176.689 301.845 176.904C301.845 177.12 301.761 177.326 301.61 177.48C301.46 177.634 301.255 177.723 301.04 177.728Z" fill="#3F3D56"/>
<path d="M108.1 171.878C110.765 171.878 112.925 169.669 112.925 166.945C112.925 164.221 110.765 162.013 108.1 162.013C105.436 162.013 103.275 164.221 103.275 166.945C103.275 169.669 105.436 171.878 108.1 171.878Z" fill="#3F3D56"/>
<path d="M124.768 171.878C127.433 171.878 129.593 169.669 129.593 166.945C129.593 164.221 127.433 162.013 124.768 162.013C122.104 162.013 119.943 164.221 119.943 166.945C119.943 169.669 122.104 171.878 124.768 171.878Z" fill="#3F3D56"/>
<path d="M141.438 171.878C144.103 171.878 146.263 169.669 146.263 166.945C146.263 164.221 144.103 162.013 141.438 162.013C138.773 162.013 136.613 164.221 136.613 166.945C136.613 169.669 138.773 171.878 141.438 171.878Z" fill="#3F3D56"/>
<path d="M291.003 163.233H279.164C278.93 163.238 278.708 163.335 278.544 163.503C278.381 163.67 278.289 163.895 278.289 164.129C278.289 164.363 278.381 164.588 278.544 164.755C278.708 164.923 278.93 165.019 279.164 165.025H291.003C291.238 165.022 291.463 164.926 291.628 164.758C291.794 164.59 291.886 164.364 291.886 164.129C291.886 163.893 291.794 163.667 291.628 163.5C291.463 163.332 291.238 163.236 291.003 163.233Z" fill="#3F3D56"/>
<path d="M291.002 166.598H279.164C278.929 166.603 278.706 166.7 278.543 166.867C278.379 167.034 278.287 167.259 278.287 167.494C278.287 167.728 278.379 167.953 278.543 168.12C278.706 168.288 278.929 168.384 279.164 168.39H291.002C291.238 168.387 291.463 168.291 291.629 168.123C291.794 167.956 291.887 167.729 291.887 167.494C291.887 167.258 291.794 167.032 291.629 166.864C291.463 166.696 291.238 166.6 291.002 166.598Z" fill="#3F3D56"/>
<path d="M291.003 169.962H279.164C278.93 169.968 278.708 170.065 278.544 170.232C278.381 170.4 278.289 170.624 278.289 170.858C278.289 171.092 278.381 171.317 278.544 171.485C278.708 171.652 278.93 171.749 279.164 171.754H291.003C291.238 171.751 291.463 171.655 291.628 171.487C291.794 171.32 291.886 171.094 291.886 170.858C291.886 170.623 291.794 170.397 291.628 170.229C291.463 170.062 291.238 169.966 291.003 169.962Z" fill="#3F3D56"/>
<path d="M576.408 368.655C576.765 369.695 577.443 370.596 578.344 371.227C579.244 371.858 580.322 372.187 581.422 372.167L602.903 371.614C604.01 371.593 605.081 371.213 605.955 370.533C606.83 369.852 607.46 368.907 607.752 367.838L610.792 335.335C611.871 335.823 613.045 336.064 614.229 336.041C615.257 336.015 616.27 335.787 617.211 335.369C618.151 334.952 619 334.353 619.709 333.608C620.418 332.863 620.973 331.985 621.342 331.025C621.712 330.065 621.889 329.041 621.863 328.013C621.838 326.985 621.609 325.971 621.192 325.031C620.775 324.091 620.176 323.242 619.431 322.533C618.685 321.824 617.807 321.269 616.847 320.899C615.887 320.53 614.864 320.353 613.835 320.378C613.362 320.377 612.89 320.426 612.428 320.525C611.924 319.98 611.313 319.547 610.632 319.254C609.951 318.96 609.217 318.812 608.475 318.82L575.432 319.673C575.158 319.683 574.886 319.717 574.617 319.774C573.893 319.909 573.205 320.198 572.602 320.621C571.998 321.044 571.492 321.591 571.118 322.226C570.743 322.861 570.509 323.569 570.431 324.302C570.353 325.035 570.433 325.776 570.666 326.475L576.408 368.655ZM611.416 333.128L613.579 325.382C613.825 324.487 613.83 323.544 613.595 322.646C613.7 322.646 613.793 322.596 613.898 322.596C615.381 322.565 616.816 323.124 617.887 324.149C618.959 325.175 619.581 326.583 619.615 328.066C619.65 329.549 619.095 330.986 618.073 332.06C617.05 333.135 615.643 333.76 614.16 333.799C613.201 333.829 612.252 333.597 611.416 333.128Z" fill="#2F2E41"/>
<path d="M574.617 319.774C575.321 323.799 583.236 326.629 592.753 326.137C601.504 325.734 608.66 322.661 609.971 319.019C609.485 318.875 608.981 318.808 608.475 318.82L575.432 319.673C575.158 319.683 574.885 319.717 574.617 319.774Z" fill="#3F3D56"/>
<path d="M594.497 350.794C594.54 350.783 594.581 350.765 594.619 350.74L599.284 347.687C599.34 347.65 599.387 347.6 599.419 347.541C599.451 347.482 599.468 347.416 599.468 347.348C599.468 347.281 599.451 347.215 599.419 347.155C599.387 347.096 599.341 347.046 599.284 347.009L594.435 343.833C594.391 343.804 594.341 343.784 594.289 343.773C594.236 343.763 594.182 343.764 594.13 343.774C594.078 343.785 594.028 343.806 593.984 343.836C593.94 343.866 593.902 343.905 593.873 343.949C593.844 343.994 593.824 344.044 593.814 344.096C593.804 344.149 593.804 344.202 593.815 344.255C593.826 344.307 593.847 344.356 593.878 344.4C593.908 344.444 593.946 344.482 593.991 344.511L598.322 347.348L594.175 350.062C594.095 350.115 594.036 350.194 594.008 350.286C593.981 350.378 593.987 350.476 594.026 350.564C594.064 350.652 594.133 350.723 594.219 350.766C594.305 350.808 594.404 350.818 594.497 350.794H594.497Z" fill="#3426F8"/>
<path d="M587.129 351.134C587.207 351.114 587.278 351.072 587.332 351.011C587.386 350.951 587.42 350.876 587.431 350.796C587.442 350.716 587.429 350.635 587.393 350.562C587.358 350.49 587.301 350.43 587.231 350.389L582.931 347.924L587.087 344.837C587.13 344.806 587.166 344.766 587.194 344.72C587.221 344.674 587.239 344.624 587.247 344.571C587.254 344.519 587.252 344.465 587.239 344.413C587.226 344.362 587.203 344.313 587.171 344.27C587.139 344.228 587.099 344.192 587.054 344.164C587.008 344.137 586.958 344.119 586.905 344.111C586.852 344.104 586.799 344.106 586.747 344.119C586.695 344.132 586.647 344.155 586.604 344.187L581.951 347.643C581.897 347.683 581.854 347.736 581.825 347.797C581.797 347.858 581.784 347.925 581.788 347.992C581.792 348.06 581.812 348.125 581.848 348.182C581.883 348.239 581.932 348.287 581.991 348.32L586.828 351.093C586.919 351.145 587.027 351.16 587.129 351.134Z" fill="#3426F8"/>
<path d="M594.034 353.47C594.073 353.46 594.11 353.445 594.145 353.423C594.19 353.396 594.23 353.359 594.261 353.316C594.293 353.273 594.316 353.225 594.328 353.173C594.341 353.121 594.343 353.067 594.335 353.015C594.327 352.962 594.308 352.912 594.281 352.866L587.668 341.994C587.612 341.903 587.521 341.837 587.417 341.812C587.313 341.786 587.202 341.804 587.111 341.86C587.019 341.915 586.953 342.005 586.928 342.11C586.902 342.214 586.919 342.324 586.975 342.416L593.588 353.288C593.633 353.362 593.701 353.42 593.781 353.452C593.861 353.485 593.95 353.491 594.034 353.47Z" fill="#3426F8"/>
<path d="M222.261 222.485H186.428C184.966 222.485 183.781 223.67 183.781 225.132V228.632C183.781 230.094 184.966 231.279 186.428 231.279H222.261C223.722 231.279 224.907 230.094 224.907 228.632V225.132C224.907 223.67 223.722 222.485 222.261 222.485Z" fill="#3426F8"/>
<path d="M243.147 240.073H165.541C164.08 240.073 162.895 241.258 162.895 242.719V246.22C162.895 247.682 164.08 248.867 165.541 248.867H243.147C244.609 248.867 245.794 247.682 245.794 246.22V242.719C245.794 241.258 244.609 240.073 243.147 240.073Z" fill="#E6E6E6"/>
<path d="M243.147 257.661H165.541C164.08 257.661 162.895 258.846 162.895 260.307V263.808C162.895 265.27 164.08 266.455 165.541 266.455H243.147C244.609 266.455 245.794 265.27 245.794 263.808V260.307C245.794 258.846 244.609 257.661 243.147 257.661Z" fill="#E6E6E6"/>
<path d="M249.727 316.555L249.902 317.11L249.912 317.129L255.203 333.214L261.289 351.75L272.741 386.584L272.852 391.995V392.014L273.703 435.542L271.344 441.444L273.999 451.119C273.999 451.119 272.778 436.494 266.229 444.893C262.519 449.665 258.181 454.549 254.62 459.128C259.809 461.227 265.082 463.127 270.437 464.825C271.594 465.195 272.759 465.547 273.925 465.898C274.174 465.972 274.424 466.046 274.674 466.12C292.427 471.37 310.781 474.32 329.286 474.898C330.248 474.926 331.191 474.944 332.107 474.963C332.431 474.972 332.745 474.982 333.06 474.982C334.096 474.991 335.123 475 336.159 475C338.249 475 340.33 474.969 342.402 474.908C357.738 474.475 372.985 472.413 387.885 468.756C387.783 462.605 387.505 455.419 387.108 447.741C386.923 443.977 382.769 439.898 382.52 435.957C382.344 432.998 386.072 430.213 385.877 427.207C384.619 408.699 383.047 415.804 381.881 402.697C381.761 401.411 381.65 400.181 381.548 399.006C380.799 390.589 380.281 385.326 380.281 385.326L385.258 353.961L393.074 304.716L392.473 303.726L391.798 303.393L350.57 282.989L348.332 277.254C347.679 275.602 346.548 274.182 345.082 273.179C343.617 272.175 341.885 271.632 340.108 271.621L312.95 271.51C311.541 271.504 310.15 271.833 308.894 272.472C307.638 273.111 306.552 274.04 305.726 275.182L298.372 285.366L249.727 316.555Z" fill="#3F3D56"/>
<path d="M279.002 378.833L272.851 391.995L268.652 400.986L261.428 438.807L257.811 442.646L254.712 429.057L222.279 436.258C221.216 430.347 221.995 436.458 221.338 429.974C221.523 429.789 221.717 429.604 221.911 429.419C222.429 428.938 222.864 428.485 222.855 428.05C222.485 405.684 223.595 367.622 232.863 344.563C234.315 340.798 236.229 337.228 238.561 333.935C238.746 333.686 238.922 333.436 239.098 333.186C243.371 327.202 246.072 321.31 249.902 317.12V317.11C249.926 317.091 249.947 317.069 249.967 317.045C249.981 317.039 249.993 317.029 250.004 317.018L276.311 303.069L277.439 334.777L278.244 357.568L279.002 378.833Z" fill="#3F3D56"/>
<path d="M373.859 382.571L381.543 399.011L384.225 404.736L391.447 442.554L395.052 446.383L398.158 432.798L399.617 432.498L425.937 427.048L433.608 451.41C435.337 448.529 436.018 445.14 435.536 441.815C435.054 438.49 433.439 435.433 430.963 433.162C430.439 432.688 430.003 432.226 430.015 431.79C430.452 405.484 428.843 357.451 414.311 337.681C409.696 331.407 406.927 325.158 402.898 320.792C402.885 320.78 402.885 320.768 402.873 320.768L393.069 304.715L392.47 303.729L391.796 303.393L373.859 382.571Z" fill="#3F3D56"/>
<path d="M327.312 263.781C347.266 263.781 363.443 247.606 363.443 227.652C363.443 207.699 347.266 191.523 327.312 191.523C307.358 191.523 291.182 207.699 291.182 227.652C291.182 247.606 307.358 263.781 327.312 263.781Z" fill="#FFB6B6"/>
<path d="M376.147 202.416C375.867 202.117 375.529 201.878 375.155 201.712C374.78 201.546 374.376 201.458 373.966 201.452L374.509 199.943C374.686 199.468 374.734 198.955 374.648 198.455C374.561 197.956 374.343 197.488 374.017 197.1C373.69 196.712 373.266 196.418 372.788 196.248C372.311 196.078 371.796 196.038 371.298 196.133L369.32 196.514L369.506 195.192C369.578 194.7 369.52 194.197 369.338 193.734C369.157 193.271 368.858 192.863 368.471 192.551C368.084 192.238 367.622 192.032 367.131 191.952C366.64 191.872 366.137 191.921 365.671 192.095C365.247 192.262 364.791 192.331 364.336 192.299C363.881 192.267 363.44 192.133 363.044 191.908C362.646 191.69 362.3 191.387 362.031 191.022C361.762 190.656 361.577 190.237 361.487 189.792L360.797 186.467L360.724 186.289C357.368 180.694 350.913 176.624 343.015 175.132C335.985 173.794 328.777 174.475 321.828 175.116C319.071 175.375 315.957 175.667 313.362 177.257C311.157 178.619 309.292 181.343 309.673 184.092C302.821 181.992 295.475 186.184 291.834 191.47C287.52 197.762 286.815 205.643 286.701 211.806C286.393 226.384 289.401 238.312 295.621 247.263C296.075 247.912 296.188 249.266 297.088 249.72L296.902 249.42C297.907 249.923 298.929 250.733 298.548 251.601C297.453 254.098 304.727 259.62 309.851 261.444C319.2 264.777 331.631 264.493 340.372 263.293L340.68 261.225C343.834 260.796 346.056 259.977 346.68 258.696C347.783 257.755 348.724 256.912 349.543 256.133L349.551 256.125C349.567 256.109 349.599 256.085 349.616 256.069C353.565 252.282 354.481 250.125 354.894 246.841C355.292 243.622 354.586 240.355 353.865 237.412C369.06 239.763 347.88 221.228 362.038 217.644C362.2 217.594 362.366 217.553 362.533 217.522C362.946 217.425 363.36 217.327 363.757 217.214C365.672 216.694 367.506 215.911 369.206 214.887C373.163 212.479 374.469 209.284 376.512 205.684C376.807 205.171 376.93 204.578 376.865 203.99C376.799 203.403 376.548 202.851 376.147 202.416Z" fill="#2F2E41"/>
<path d="M455.102 385.144C455.093 386.563 455.077 388.549 455.012 391.006C455.004 391.347 454.996 391.695 454.988 392.052C454.883 396.568 454.777 400.355 454.607 404.563C454.599 404.855 454.591 405.139 454.575 405.431C454.347 411.301 453.991 418.136 453.374 428.961C452.231 448.956 450.236 431.709 448.234 438.723C448.136 439.072 448.031 439.485 447.934 439.972C447.63 441.737 447.119 443.46 446.409 445.104C445.347 445.737 444.252 446.345 443.174 446.953C440.101 448.664 436.979 450.31 433.833 451.875C432.065 452.75 430.289 453.61 428.505 454.437C428.222 454.567 427.946 454.696 427.67 454.818C418.535 459.043 409.121 462.635 399.493 465.57C397.612 466.137 395.739 466.688 393.841 467.199C391.863 467.751 389.884 468.27 387.881 468.756C372.982 472.414 357.736 474.477 342.4 474.91C340.333 474.975 338.249 474.999 336.157 474.999C335.119 474.999 334.097 474.991 333.059 474.983C332.743 474.983 332.427 474.975 332.111 474.967C331.194 474.943 330.246 474.926 329.289 474.902C310.784 474.325 292.43 471.374 274.677 466.121L273.923 465.902C272.756 465.545 271.596 465.197 270.437 464.824C265.085 463.129 259.812 461.232 254.617 459.132C250.652 457.534 246.732 455.821 242.859 453.991C242.824 453.981 242.791 453.965 242.762 453.942C241.951 453.569 241.132 453.18 240.321 452.783C240.216 452.726 240.102 452.669 239.989 452.613C236.964 451.137 233.972 449.591 231.013 447.975C228.523 442.258 225.02 441.164 222.847 436.137C222.215 434.643 221.758 433.081 221.485 431.482C221.485 431.466 221.477 431.45 221.477 431.426C221.704 434.442 220.512 426.074 221.469 431.393C221.461 431.296 221.453 431.191 221.445 431.069C221.42 430.777 221.388 430.42 221.339 429.974C218.558 402.82 218.736 371.765 217.528 346.176C217.447 344.522 217.363 342.938 217.277 341.424C217.252 340.922 217.22 340.427 217.188 339.941C217.244 339.795 217.309 339.64 217.382 339.495C217.398 339.452 217.417 339.412 217.439 339.373C217.463 339.323 217.49 339.274 217.52 339.227C217.536 339.203 217.561 339.17 217.577 339.146C217.589 339.118 217.602 339.091 217.617 339.065C217.69 338.951 217.771 338.83 217.861 338.716C217.901 338.668 217.933 338.627 217.974 338.586C218.002 338.545 218.035 338.507 218.071 338.473C218.096 338.434 218.126 338.398 218.161 338.368C218.193 338.335 218.225 338.295 218.266 338.254C218.283 338.229 218.305 338.206 218.331 338.189C218.395 338.115 218.465 338.048 218.542 337.986C218.831 337.72 219.14 337.476 219.466 337.257C219.579 337.184 219.701 337.111 219.815 337.03C220.632 336.541 221.492 336.128 222.385 335.797C222.693 335.684 223.001 335.578 223.334 335.465C223.455 335.432 223.569 335.392 223.691 335.351C223.869 335.295 224.047 335.238 224.234 335.197C225.158 334.922 226.156 334.686 227.234 334.467C227.364 334.443 227.502 334.419 227.639 334.386C227.834 334.346 228.037 334.313 228.24 334.281C228.515 334.232 228.799 334.184 229.083 334.135C231.491 333.754 234.224 333.47 237.24 333.284C237.524 333.267 237.808 333.251 238.091 333.235C238.424 333.219 238.756 333.203 239.097 333.186C239.381 333.17 239.673 333.162 239.965 333.154C240.248 333.138 240.54 333.13 240.84 333.122C241.659 333.097 242.503 333.073 243.362 333.057C245.811 333.008 248.389 333.024 251.098 333.081C252.354 333.113 253.636 333.146 254.949 333.203C255.038 333.203 255.119 333.211 255.201 333.211C256.344 333.251 257.495 333.3 258.679 333.365C259.506 333.405 260.341 333.446 261.177 333.495C261.963 333.543 262.758 333.592 263.561 333.649C264.185 333.681 264.809 333.73 265.442 333.77C265.977 333.811 266.512 333.851 267.047 333.884L267.777 333.932C268.174 333.965 268.572 333.989 268.977 334.03C269.869 334.103 270.761 334.176 271.669 334.249C272.569 334.33 273.485 334.411 274.402 334.492C275.318 334.573 276.242 334.662 277.167 334.751C277.264 334.759 277.353 334.767 277.442 334.776C278.286 334.865 279.129 334.946 279.98 335.035C280.175 335.051 280.378 335.067 280.572 335.092C281.384 335.173 282.212 335.269 283.031 335.356C283.282 335.383 283.532 335.409 283.784 335.437C284.426 335.507 285.059 335.567 285.705 335.643C286.556 335.74 287.424 335.83 288.267 335.943C288.924 336.016 289.581 336.089 290.238 336.17C291.267 336.292 292.313 336.422 293.359 336.559C293.757 336.608 294.154 336.657 294.551 336.713C297.535 337.086 300.552 337.5 303.617 337.93C308.263 338.586 312.982 339.3 317.734 340.07C322.494 340.841 327.28 341.654 332.094 342.511C333.311 342.73 334.527 342.949 335.751 343.176C336.303 343.281 336.854 343.386 337.405 343.492C338.346 343.662 339.287 343.841 340.227 344.019C341.168 344.197 342.108 344.376 343.049 344.562C344.168 344.781 345.295 345 346.414 345.219C353.785 346.678 361.115 348.235 368.267 349.865C369.442 350.133 370.618 350.408 371.786 350.676C374.121 351.219 376.435 351.77 378.727 352.33C379.359 352.476 379.984 352.63 380.608 352.784C382.165 353.173 383.722 353.562 385.254 353.96L385.522 354.033C386.649 354.308 387.752 354.592 388.854 354.884C391.457 355.565 394.017 356.254 396.533 356.952C398.204 357.414 399.855 357.881 401.488 358.354C403.928 359.06 406.32 359.773 408.647 360.495C409.223 360.673 409.799 360.852 410.366 361.022C412.069 361.549 413.748 362.084 415.378 362.619C416.675 363.041 417.94 363.471 419.189 363.9C420.437 364.33 421.662 364.76 422.862 365.19C423.632 365.465 424.394 365.757 425.156 366.033C426.251 366.438 427.33 366.844 428.384 367.249C428.708 367.371 429.024 367.5 429.341 367.622C429.543 367.711 429.738 367.784 429.932 367.865C430.314 368.019 430.703 368.165 431.076 368.319C431.457 368.465 431.83 368.619 432.203 368.781C432.568 368.927 432.941 369.081 433.298 369.236C433.662 369.381 434.019 369.536 434.376 369.698C434.676 369.819 434.968 369.949 435.252 370.079C435.827 370.33 436.403 370.582 436.963 370.841C437.238 370.971 437.514 371.092 437.79 371.222L438.422 371.514C438.511 371.563 438.601 371.603 438.69 371.644C438.892 371.741 439.103 371.846 439.306 371.944C439.776 372.163 440.238 372.398 440.693 372.617C441.301 372.925 441.893 373.233 442.46 373.533C443.036 373.841 443.595 374.149 444.131 374.449C444.22 374.498 444.301 374.546 444.39 374.595C444.512 374.66 444.633 374.733 444.755 374.798C445.169 375.033 445.566 375.276 445.963 375.511C446.742 375.99 447.479 376.46 448.169 376.93C448.323 377.036 448.469 377.141 448.623 377.238C449.134 377.603 449.62 377.96 450.074 378.325C450.074 378.333 450.074 378.333 450.082 378.333C450.236 378.446 450.382 378.568 450.528 378.682C450.65 378.795 450.78 378.892 450.901 379.006C451.323 379.371 451.712 379.719 452.069 380.076C452.188 380.186 452.302 380.303 452.409 380.425C452.457 380.464 452.5 380.507 452.539 380.555C452.701 380.717 452.847 380.879 452.985 381.041C453.007 381.063 453.026 381.088 453.042 381.114C453.237 381.341 453.415 381.568 453.585 381.795C453.666 381.909 453.756 382.022 453.828 382.136C453.926 382.274 454.023 382.42 454.104 382.557C454.177 382.671 454.242 382.792 454.307 382.906C454.479 383.198 454.625 383.505 454.745 383.822C454.836 384.037 454.909 384.26 454.964 384.487C455.025 384.702 455.071 384.922 455.102 385.144Z" fill="#2F2E41"/>
<path opacity="0.2" d="M455.102 385.144C455.094 386.562 455.078 388.549 455.013 391.006C455.005 391.346 454.988 391.695 454.98 392.052C454.899 395.498 454.778 399.755 454.607 404.563C454.599 404.855 454.591 405.138 454.575 405.43C454.348 411.301 453.991 418.136 453.375 428.96C452.231 448.955 450.237 431.709 448.234 438.723C442.671 435.301 436.574 431.717 430.054 428.036C428.879 427.371 427.692 426.704 426.495 426.033C413.456 418.76 398.893 411.139 383.69 403.59C383.09 403.29 382.481 402.99 381.881 402.698C347.055 385.484 309.042 368.741 278.245 357.567C272.302 355.411 266.626 353.465 261.29 351.754C250.052 348.162 240.338 345.648 232.862 344.562C225.077 343.427 219.701 343.832 217.528 346.175C217.447 344.521 217.363 342.937 217.277 341.424C217.245 340.921 217.212 340.427 217.18 339.94C217.23 339.807 217.295 339.679 217.358 339.551C217.367 339.532 217.373 339.513 217.382 339.494C217.398 339.452 217.417 339.411 217.439 339.373C217.463 339.322 217.49 339.273 217.52 339.227C217.547 339.169 217.579 339.115 217.618 339.064C217.691 338.951 217.772 338.829 217.861 338.716C217.926 338.631 217.997 338.549 218.072 338.472C218.097 338.433 218.127 338.398 218.161 338.367C218.193 338.335 218.226 338.294 218.266 338.254C218.284 338.228 218.306 338.206 218.331 338.189C218.395 338.115 218.466 338.047 218.542 337.986C218.831 337.72 219.14 337.476 219.466 337.256C219.58 337.183 219.701 337.11 219.815 337.029C220.632 336.54 221.493 336.128 222.385 335.797C222.694 335.683 223.002 335.578 223.334 335.464C223.456 335.432 223.569 335.391 223.691 335.351C223.869 335.294 224.048 335.237 224.234 335.197C225.159 334.921 226.156 334.686 227.234 334.467C227.559 334.402 227.899 334.337 228.24 334.281C228.516 334.232 228.799 334.183 229.083 334.135C231.491 333.754 234.224 333.47 237.24 333.283C237.524 333.267 237.808 333.251 238.092 333.235C238.424 333.218 238.757 333.202 239.097 333.186C239.381 333.17 239.673 333.162 239.965 333.154C240.249 333.137 240.541 333.129 240.841 333.121C241.66 333.097 242.503 333.072 243.362 333.056C245.811 333.016 248.39 333.032 251.098 333.089C252.355 333.113 253.636 333.154 254.95 333.21C255.031 333.21 255.12 333.218 255.201 333.218C256.344 333.251 257.504 333.308 258.679 333.364C259.507 333.405 260.342 333.445 261.177 333.494C261.963 333.543 262.758 333.591 263.561 333.648C264.185 333.681 264.809 333.729 265.442 333.77C265.977 333.81 266.512 333.851 267.047 333.883C267.688 333.932 268.329 333.981 268.977 334.029C269.869 334.102 270.761 334.175 271.669 334.248C272.569 334.329 273.486 334.41 274.402 334.491C275.318 334.572 276.243 334.662 277.167 334.751C277.264 334.759 277.354 334.767 277.443 334.775C278.286 334.864 279.129 334.945 279.981 335.035C284.7 335.513 289.557 336.072 294.552 336.713C297.536 337.094 300.558 337.502 303.617 337.937C308.263 338.594 312.983 339.308 317.734 340.07C322.494 340.84 327.281 341.654 332.095 342.51C333.311 342.729 334.527 342.948 335.752 343.175C337.244 343.451 338.736 343.732 340.228 344.019C341.168 344.197 342.109 344.375 343.049 344.562C344.168 344.781 345.295 345 346.414 345.219C353.785 346.678 361.115 348.235 368.267 349.865C369.443 350.132 370.618 350.408 371.786 350.675C374.121 351.219 376.435 351.77 378.727 352.329C379.36 352.484 379.984 352.638 380.608 352.792C382.173 353.181 383.722 353.57 385.254 353.959V353.967C385.344 353.984 385.433 354.008 385.522 354.032C386.641 354.316 387.752 354.6 388.855 354.892C391.458 355.573 394.017 356.259 396.534 356.951C398.204 357.421 399.858 357.884 401.488 358.354C403.929 359.067 406.321 359.781 408.648 360.494C409.224 360.673 409.799 360.851 410.367 361.022C412.07 361.557 413.74 362.089 415.378 362.619C416.675 363.04 417.94 363.47 419.189 363.9C420.438 364.33 421.662 364.759 422.862 365.189C423.641 365.465 424.403 365.749 425.157 366.024C426.26 366.43 427.33 366.835 428.384 367.249C428.708 367.37 429.025 367.5 429.341 367.622C429.933 367.849 430.509 368.084 431.076 368.319C431.457 368.465 431.83 368.619 432.203 368.781C432.568 368.927 432.941 369.081 433.298 369.235C433.663 369.381 434.02 369.535 434.376 369.697C434.676 369.819 434.968 369.949 435.252 370.078C435.828 370.33 436.403 370.581 436.963 370.841C437.239 370.97 437.514 371.092 437.79 371.222L438.423 371.514C438.512 371.562 438.601 371.603 438.69 371.643C439.379 371.968 440.044 372.292 440.693 372.616C441.301 372.924 441.893 373.233 442.461 373.533C443.134 373.889 443.774 374.238 444.39 374.595C444.512 374.66 444.634 374.733 444.755 374.797C445.169 375.033 445.566 375.276 445.963 375.511C446.742 375.989 447.48 376.46 448.169 376.93C448.85 377.4 449.483 377.862 450.075 378.324C450.075 378.333 450.075 378.333 450.083 378.333C450.366 378.56 450.642 378.787 450.902 379.006C451.323 379.37 451.713 379.719 452.069 380.076C452.189 380.186 452.303 380.302 452.41 380.424C452.457 380.464 452.501 380.507 452.54 380.554C452.71 380.741 452.88 380.927 453.042 381.114C453.237 381.341 453.415 381.568 453.586 381.795C453.667 381.908 453.756 382.022 453.829 382.135C453.926 382.273 454.024 382.419 454.105 382.557C454.178 382.67 454.242 382.792 454.307 382.906C454.479 383.198 454.626 383.504 454.745 383.822C454.834 384.038 454.907 384.26 454.964 384.487C455.026 384.702 455.072 384.922 455.102 385.144Z" fill="black"/>
</g>
<defs>
<filter id="filter0_d_135_967" x="0" y="0" width="666" height="492" filterUnits="userSpaceOnUse" color-interpolation-filters="sRGB">
<feFlood flood-opacity="0" result="BackgroundImageFix"/>
<feColorMatrix in="SourceAlpha" type="matrix" values="0 0 0 0 0 0 0 0 0 0 0 0 0 0 0 0 0 0 127 0" result="hardAlpha"/>
<feOffset dy="3"/>
<feGaussianBlur stdDeviation="7"/>
<feComposite in2="hardAlpha" operator="out"/>
<feColorMatrix type="matrix" values="0 0 0 0 0 0 0 0 0 0 0 0 0 0 0 0 0 0 0.12 0"/>
<feBlend mode="normal" in2="BackgroundImageFix" result="effect1_dropShadow_135_967"/>
<feBlend mode="normal" in="SourceGraphic" in2="effect1_dropShadow_135_967" result="shape"/>
</filter>
<clipPath id="clip0_135_967">
<rect width="638" height="464" fill="white" transform="translate(14 11)"/>
</clipPath>
</defs>
</svg>
