<svg width="489" height="454" viewBox="0 0 489 454" fill="none" xmlns="http://www.w3.org/2000/svg">
<g clip-path="url(#clip0_135_869)">
<path d="M261.538 63.7685C277.76 50.6144 300.599 45.5717 318.47 55.8337C298.352 65.422 281.972 82.5123 272.228 104.081C268.498 112.414 265.139 122.109 257.442 125.96C252.653 128.357 247.001 127.894 242.042 125.959C237.083 124.024 232.672 120.736 228.322 117.484L227.018 117.311C234.759 96.8685 245.315 76.9226 261.538 63.7685Z" fill="#F0F0F0"/>
<path d="M318.326 56.2708C301.641 56.8446 285.544 63.1748 272.323 74.3622C269.437 76.7152 266.908 79.5526 264.828 82.7701C262.894 85.9762 261.777 89.6924 261.594 93.5325C261.357 97.1092 261.493 100.798 260.468 104.249C259.92 106.007 259.039 107.619 257.884 108.977C256.729 110.335 255.325 111.41 253.765 112.131C249.92 114.039 245.679 114.316 241.524 114.429C236.91 114.555 232.116 114.605 227.92 116.989C227.412 117.278 227.033 116.395 227.541 116.107C234.841 111.958 243.372 114.665 251.044 112.196C254.624 111.044 257.91 108.7 259.347 104.779C260.604 101.351 260.468 97.5468 260.679 93.923C260.807 90.174 261.77 86.5166 263.484 83.2703C265.408 79.947 267.834 77.0073 270.656 74.5772C276.932 68.995 283.968 64.5306 291.507 61.3475C300.093 57.6624 309.19 55.6166 318.404 55.2986C318.975 55.2792 318.893 56.2514 318.326 56.2707V56.2708Z" fill="white"/>
<path d="M276.387 70.4845C274.978 67.7947 274.486 64.6428 274.999 61.5917C275.511 58.5406 276.996 55.7889 279.186 53.8281C279.631 53.433 280.211 54.1726 279.766 54.5682C277.723 56.39 276.341 58.9533 275.868 61.7956C275.396 64.6379 275.865 67.5718 277.19 70.0679C277.478 70.6107 276.672 71.0242 276.387 70.4845V70.4845Z" fill="white"/>
<path d="M261.496 91.7013C267.061 93.4086 273.008 92.7509 278.15 89.8593C278.66 89.5724 279.038 90.4551 278.53 90.7417C273.173 93.7397 266.984 94.4104 261.196 92.6197C260.645 92.4486 260.948 91.5311 261.496 91.7013Z" fill="white"/>
<path d="M300.051 58.955C300.398 60.1205 301.004 61.1729 301.814 62.0178C302.623 62.8627 303.612 63.4736 304.689 63.7957C305.243 63.959 304.939 64.8764 304.389 64.7141C303.2 64.3522 302.109 63.676 301.213 62.7447C300.317 61.8134 299.642 60.6553 299.247 59.3716C299.2 59.254 299.197 59.1214 299.236 59.0008C299.275 58.8802 299.355 58.7805 299.459 58.7221C299.566 58.6676 299.688 58.6614 299.799 58.7051C299.909 58.7487 300 58.8385 300.051 58.955H300.051Z" fill="white"/>
<path d="M332.639 129.159C332.29 129.068 331.942 128.976 331.589 128.891C326.903 127.691 322.137 126.911 317.336 126.559C316.966 126.525 316.59 126.497 316.219 126.475C304.645 125.762 293.052 127.413 282.027 131.346C277.642 132.915 273.371 134.848 269.253 137.128C263.566 140.278 257.627 144.189 251.504 145.067C250.866 145.166 250.224 145.222 249.579 145.234L226.927 119.071C226.903 118.984 226.873 118.901 226.848 118.813L225.9 117.814C226.105 117.68 226.32 117.546 226.525 117.412C226.644 117.334 226.768 117.261 226.886 117.183C226.967 117.133 227.048 117.083 227.118 117.032C227.145 117.016 227.172 116.999 227.193 116.988C227.263 116.937 227.333 116.899 227.398 116.854C228.599 116.101 229.806 115.356 231.021 114.619C231.026 114.614 231.026 114.614 231.037 114.614C240.305 109.025 250.079 104.236 260.204 101.227C260.509 101.137 260.819 101.04 261.134 100.962C265.705 99.6338 270.367 98.7178 275.074 98.2234C277.652 97.9617 280.241 97.8435 282.83 97.8692C289.519 97.9496 296.156 99.1845 302.496 101.529C315.134 106.204 326.269 115.263 332.195 128.168C332.346 128.498 332.493 128.823 332.639 129.159Z" fill="#F0F0F0"/>
<path d="M332.286 129.415C318.649 118.846 302.325 113.263 285.632 113.458C282.037 113.43 278.462 114.024 275.036 115.218C271.733 116.499 268.803 118.728 266.55 121.673C264.4 124.373 262.485 127.408 259.774 129.487C258.372 130.528 256.785 131.232 255.117 131.553C253.45 131.875 251.739 131.805 250.098 131.35C245.982 130.332 242.444 127.751 239.064 125.095C235.312 122.146 231.456 119.018 226.798 118.149C226.234 118.043 226.416 117.088 226.979 117.193C235.084 118.705 240.41 126.504 247.891 129.603C251.381 131.049 255.29 131.35 258.588 129.169C261.472 127.262 263.45 124.135 265.606 121.381C267.765 118.472 270.54 116.189 273.688 114.729C277.048 113.347 280.597 112.603 284.183 112.528C292.256 112.218 300.323 113.304 308.088 115.745C316.965 118.477 325.35 122.855 332.882 128.691C333.348 129.052 332.749 129.774 332.286 129.415L332.286 129.415Z" fill="white"/>
<path d="M291.002 113.048C291.352 109.969 292.688 107.127 294.771 105.03C296.854 102.933 299.549 101.716 302.373 101.599C302.945 101.577 303.002 102.551 302.43 102.572C299.8 102.677 297.29 103.81 295.354 105.767C293.418 107.725 292.183 110.377 291.872 113.246C291.804 113.87 290.934 113.667 291.002 113.048H291.002Z" fill="white"/>
<path d="M267.476 120.147C270.982 125.188 276.091 128.593 281.783 129.683C282.347 129.79 282.166 130.745 281.602 130.638C275.681 129.492 270.371 125.937 266.732 120.682C266.386 120.181 267.131 119.649 267.476 120.147V120.147Z" fill="white"/>
<path d="M316.22 119.481C315.859 120.642 315.765 121.882 315.948 123.092C316.131 124.302 316.585 125.443 317.269 126.412C317.621 126.908 316.876 127.44 316.526 126.947C315.775 125.872 315.275 124.611 315.07 123.275C314.865 121.939 314.961 120.569 315.35 119.283C315.378 119.158 315.447 119.05 315.545 118.98C315.642 118.909 315.761 118.882 315.876 118.905C315.991 118.931 316.092 119.007 316.156 119.115C316.221 119.223 316.244 119.355 316.22 119.481V119.481Z" fill="white"/>
<path d="M257.258 83.3379H255.503V30.5514C255.503 26.5393 254.783 22.5666 253.384 18.8599C251.985 15.1532 249.935 11.7853 247.351 8.94831C244.766 6.11134 241.698 3.86095 238.321 2.3256C234.944 0.790244 231.325 2.16292e-06 227.67 0H125.786C122.131 -8.65134e-06 118.512 0.790217 115.135 2.32556C111.758 3.8609 108.69 6.11129 106.105 8.94824C103.521 11.7852 101.471 15.1532 100.072 18.8598C98.6731 22.5665 97.9531 26.5393 97.9531 30.5513V320.142C97.9531 328.245 100.886 336.016 106.105 341.745C111.325 347.475 118.404 350.694 125.786 350.694H227.67C235.052 350.694 242.131 347.475 247.351 341.745C252.57 336.016 255.503 328.245 255.503 320.142V120.912H257.258V83.3379Z" fill="#3F3D56"/>
<path d="M228.793 7.94827H215.493C216.105 9.59416 216.338 11.3799 216.173 13.1481C216.008 14.9164 215.449 16.6129 214.546 18.0883C213.643 19.5636 212.423 20.7724 210.994 21.6083C209.564 22.4442 207.97 22.8815 206.351 22.8816H147.983C146.363 22.8815 144.769 22.4442 143.34 21.6083C141.91 20.7725 140.69 19.5636 139.787 18.0883C138.884 16.6129 138.325 14.9164 138.16 13.1481C137.995 11.3799 138.228 9.59414 138.84 7.94824H126.418C120.906 7.94824 115.619 10.352 111.721 14.6307C107.823 18.9094 105.633 24.7126 105.633 30.7637V319.93C105.633 322.926 106.17 325.893 107.215 328.661C108.26 331.429 109.791 333.944 111.721 336.063C113.651 338.181 115.942 339.862 118.464 341.008C120.986 342.155 123.689 342.745 126.418 342.745H228.793C231.522 342.745 234.225 342.155 236.747 341.008C239.269 339.862 241.56 338.181 243.49 336.063C245.42 333.944 246.951 331.429 247.996 328.661C249.04 325.893 249.578 322.926 249.578 319.93V30.7636C249.578 24.7126 247.388 18.9094 243.49 14.6307C239.592 10.352 234.305 7.94826 228.793 7.94827Z" fill="white"/>
<path d="M179.573 249.854C172.034 249.862 164.568 248.238 157.602 245.075C150.636 241.911 144.306 237.271 138.976 231.42C133.645 225.569 129.418 218.621 126.536 210.974C123.654 203.327 122.175 195.132 122.182 186.857C122.171 175.237 125.092 163.841 130.622 153.933C136.152 144.024 144.074 135.991 153.509 130.723C160.349 126.903 167.816 124.625 175.47 124.022C183.124 123.419 190.811 124.503 198.077 127.212C210.946 132.025 221.84 141.697 228.82 154.504C235.8 167.31 238.411 182.421 236.19 197.144C233.969 211.866 227.058 225.246 216.69 234.899C206.322 244.552 193.169 249.851 179.573 249.854L179.573 249.854ZM179.573 126.33C170.867 126.302 162.28 128.563 154.533 132.923C147.76 136.71 141.775 141.994 136.951 148.441C132.127 154.888 128.57 162.361 126.502 170.389C124.435 178.417 123.901 186.828 124.936 195.093C125.97 203.358 128.55 211.3 132.513 218.419C136.477 225.537 141.738 231.68 147.967 236.461C154.196 241.241 161.258 244.557 168.71 246.199C176.161 247.842 183.842 247.775 191.269 246.004C198.697 244.234 205.71 240.796 211.87 235.909C214.848 233.55 217.602 230.868 220.09 227.903C227.366 219.261 232.189 208.478 233.967 196.873C235.746 185.269 234.403 173.347 230.103 162.567C225.803 151.788 218.733 142.619 209.758 136.183C200.783 129.746 190.294 126.323 179.573 126.33Z" fill="#F0F0F0"/>
<path d="M55.2126 130.949C56.7879 131.166 58.3008 131.759 59.6446 132.687C60.9884 133.615 62.1305 134.856 62.9905 136.321C63.8504 137.786 64.4073 139.44 64.6219 141.166C64.8364 142.893 64.7035 144.651 64.2323 146.315L83.3007 163.75L76.4747 179.053L49.8615 154.017C47.367 152.963 45.3113 150.941 44.0841 148.334C42.8568 145.728 42.5433 142.717 43.2029 139.874C43.8625 137.031 45.4494 134.552 47.6628 132.907C49.8763 131.262 52.5626 130.565 55.2126 130.949L55.2126 130.949Z" fill="#FFB6B6"/>
<path d="M233.303 203.656C232.92 199.144 231.339 191.032 229.998 188.032C225.874 176.184 199.228 166.446 195.649 165.191L194.742 154.115L157.718 149.742L153.022 163.906L139.743 169.374C138.842 169.743 138.026 170.327 137.354 171.083C136.682 171.839 136.171 172.748 135.857 173.747L123.944 177.527L112.188 181.257L71.3461 149.668L69.4178 151.051L56.5294 160.283L54.541 161.707L107.394 214.049L127.027 208.992L141.791 205.18L143.051 210.796L139.788 230.527C149.243 240.908 161.757 247.253 175.088 248.423C188.418 249.592 201.692 245.51 212.529 236.909L220.916 228.74C226.762 221.802 231.077 213.481 233.528 204.422L233.303 203.656Z" fill="#E4E4E4"/>
<path d="M187.862 140.684C201.838 135.604 209.417 119.05 204.789 103.709C200.162 88.3679 185.081 80.0489 171.105 85.1283C157.129 90.2076 149.55 106.762 154.177 122.103C158.805 137.444 173.886 145.763 187.862 140.684Z" fill="#FFB6B6"/>
<path d="M158.429 79.5484C161.02 75.486 164.909 72.6425 169.323 71.583C173.687 70.5977 178.229 71.5122 181.99 74.1334C186.081 72.3248 190.491 71.125 194.823 71.735C199.156 72.3449 203.403 75.0015 205.407 79.378C205.829 80.5118 206.341 81.6026 206.937 82.638C208.703 85.2247 211.985 85.5602 214.884 85.6844C213.419 86.6228 211.953 87.561 210.487 88.4992C211.948 89.2464 213.409 89.9937 214.87 90.741C212.881 91.5741 210.893 92.4073 208.905 93.2405C213.532 97.7058 214.652 105.652 212.899 112.315C211.241 118.623 207.437 123.933 203.19 128.479C202.361 125.087 203.273 121.409 203.88 117.897C204.521 114.186 204.623 109.848 202.256 107.228C200.66 105.461 198.317 104.927 196.109 104.498C184.969 102.335 173.726 100.87 162.435 100.109C160.923 99.8797 159.384 100.052 157.946 100.612C155.198 101.952 154.094 105.633 153.298 108.897C152.916 103.168 153.221 97.409 154.204 91.7671C154.958 87.449 156.144 83.127 158.429 79.5484Z" fill="#2F2E41"/>
<path d="M193.077 279.535H161.568C160.473 279.535 159.424 279.058 158.65 278.208C157.876 277.359 157.441 276.207 157.441 275.006C157.441 273.805 157.876 272.653 158.65 271.803C159.424 270.954 160.473 270.477 161.568 270.477H193.077C194.171 270.477 195.22 270.954 195.994 271.803C196.768 272.653 197.203 273.805 197.203 275.006C197.203 276.207 196.768 277.359 195.994 278.208C195.22 279.058 194.171 279.535 193.077 279.535Z" fill="#3426F8"/>
<path d="M89.682 37.1602H3.01358C2.21493 37.1588 1.44941 36.8096 0.885126 36.1892C0.320841 35.5688 0.00390625 34.728 0.00390625 33.8513C0.00390625 32.9747 0.320841 32.1338 0.885126 31.5135C1.44941 30.8931 2.21493 30.5439 3.01358 30.5425H89.682C90.4815 30.5425 91.2482 30.8911 91.8135 31.5116C92.3788 32.1321 92.6964 32.9738 92.6964 33.8513C92.6964 34.7289 92.3788 35.5705 91.8135 36.191C91.2482 36.8116 90.4815 37.1602 89.682 37.1602Z" fill="#3426F8"/>
<path d="M139.722 58.2936H3.01423C2.21481 58.2936 1.44812 57.945 0.882845 57.3245C0.317566 56.704 0 55.8624 0 54.9849C0 54.1074 0.317566 53.2658 0.882845 52.6453C1.44812 52.0249 2.21481 51.6763 3.01423 51.6763H139.722C140.522 51.6763 141.288 52.0249 141.854 52.6453C142.419 53.2658 142.736 54.1074 142.736 54.9849C142.736 55.8624 142.419 56.704 141.854 57.3245C141.288 57.945 140.522 58.2936 139.722 58.2936Z" fill="#3426F8"/>
<path d="M113.451 78.2032H3.01423C2.21481 78.2032 1.44812 77.8546 0.882845 77.2342C0.317567 76.6137 0 75.7721 0 74.8946C0 74.0171 0.317567 73.1755 0.882845 72.555C1.44812 71.9345 2.21481 71.5859 3.01423 71.5859H113.451C114.251 71.5859 115.017 71.9345 115.583 72.555C116.148 73.1755 116.465 74.0171 116.465 74.8946C116.465 75.7721 116.148 76.6137 115.583 77.2342C115.017 77.8546 114.251 78.2032 113.451 78.2032Z" fill="#CACACA"/>
<path d="M65.2889 98.0401H3.01423C2.21481 98.0401 1.44812 97.6916 0.882845 97.0711C0.317567 96.4506 0 95.609 0 94.7315C0 93.854 0.317567 93.0124 0.882845 92.3919C1.44812 91.7714 2.21481 91.4229 3.01423 91.4229H65.2889C66.0883 91.4229 66.855 91.7714 67.4202 92.3919C67.9855 93.0124 68.3031 93.854 68.3031 94.7315C68.3031 95.609 67.9855 96.4506 67.4202 97.0711C66.855 97.6916 66.0883 98.0401 65.2889 98.0401Z" fill="#CACACA"/>
<path d="M99.6899 117.875H3.01338C2.21478 117.874 1.44933 117.525 0.88508 116.904C0.320829 116.284 0.00390625 115.443 0.00390625 114.566C0.00390625 113.69 0.320829 112.849 0.88508 112.229C1.44933 111.608 2.21478 111.259 3.01338 111.258H99.6899C100.489 111.259 101.254 111.608 101.818 112.229C102.382 112.849 102.699 113.69 102.699 114.566C102.699 115.443 102.382 116.284 101.818 116.904C101.254 117.525 100.489 117.874 99.6899 117.875Z" fill="#CACACA"/>
<path d="M372.153 441.579L364.385 441.578L360.689 408.689L372.154 408.69L372.153 441.579Z" fill="#9F616A"/>
<path d="M375.207 453.379L345.551 453.378V452.966C345.551 449.606 346.767 446.383 348.932 444.007C351.097 441.631 354.033 440.296 357.094 440.296H357.095L362.512 435.785L372.619 440.296L375.208 440.297L375.207 453.379Z" fill="#2F2E41"/>
<path d="M367.625 287.009L364.199 241.158L361.508 223.948L376.576 220.295L381.577 243.856L377.22 288.282C378.099 289.464 378.636 290.907 378.761 292.426C378.887 293.946 378.596 295.472 377.926 296.808C377.255 298.145 376.236 299.231 374.999 299.926C373.763 300.622 372.364 300.896 370.985 300.713C369.605 300.53 368.306 299.899 367.256 298.9C366.205 297.9 365.451 296.579 365.09 295.106C364.729 293.633 364.777 292.075 365.229 290.632C365.681 289.189 366.515 287.927 367.625 287.009H367.625Z" fill="#9F616A"/>
<path d="M330.891 441.579L323.123 441.578L319.428 408.689L330.893 408.69L330.891 441.579Z" fill="#9F616A"/>
<path d="M318.458 297.403L315.014 303.942C315.014 303.942 311.23 305.076 312.467 318.615C313.704 332.154 313.757 412.37 319.743 422.24L320.826 430.716L332.129 431.902L332.414 424.381L345.892 319.893C345.892 319.893 353.83 422.467 360.397 424.977L362.768 433.523L373.127 433.528L372.515 423.457L373.183 296.343L318.458 297.403Z" fill="#2F2E41"/>
<path d="M314.672 303.444L314.434 303.376C321.541 274.195 319.491 236.407 314.472 195.831L314.473 195.663L332.615 177.422H348.37L363.988 188.485C374.085 194.027 376.379 205.762 376.401 205.88L376.417 205.963L370.23 229.667L374.891 298.217L374.896 298.296L374.87 298.37C373.361 302.568 369.319 301.97 364.639 301.278C359.968 300.587 342.751 306.909 337.472 306.909C327.156 306.909 315.409 303.651 314.672 303.444Z" fill="#E4E4E4"/>
<path d="M360.717 197.724L367.485 194.492L376.402 206.493L383.63 244.948L358.873 240.831L360.717 197.724Z" fill="#E4E4E4"/>
<path d="M256.618 268.636L287.558 237.602L298.311 224.734L310.164 235.58L296.248 254.34L261.574 277.744C261.26 279.231 260.548 280.58 259.53 281.619C258.512 282.658 257.235 283.339 255.862 283.575C254.489 283.811 253.083 283.591 251.824 282.943C250.566 282.295 249.513 281.249 248.8 279.939C248.088 278.629 247.748 277.115 247.825 275.592C247.902 274.069 248.393 272.605 249.233 271.39C250.074 270.175 251.226 269.264 252.542 268.773C253.858 268.282 255.278 268.234 256.618 268.636L256.618 268.636Z" fill="#9F616A"/>
<path d="M286.885 237.94L295.454 225.725C295.525 225.55 302.635 208.11 308.797 200.533C315.119 192.76 320.095 196.735 320.145 196.778L320.269 196.881L320.613 225.585L296.885 256.706L286.885 237.94Z" fill="#E4E4E4"/>
<path d="M353.186 160.24C354.464 151.598 349.117 143.455 341.244 142.053C333.371 140.65 325.952 146.519 324.675 155.161C323.397 163.804 328.744 171.946 336.617 173.349C344.49 174.751 351.908 168.882 353.186 160.24Z" fill="#9F616A"/>
<path d="M325.728 155.348C325.728 155.348 325.612 149.774 324.97 147.308C324.328 144.842 323.045 142.729 323.687 142.729C324.329 142.729 324.649 140.967 324.649 140.967C324.649 140.967 325.291 140.615 325.612 140.967C325.933 141.32 326.254 138.501 326.254 138.501C326.254 138.501 326.575 137.444 326.896 138.149C327.217 138.854 327.217 138.501 327.538 137.444C327.859 136.388 329.464 135.683 329.464 135.683C329.464 135.683 335.561 136.035 336.524 134.626C337.487 133.217 348.399 134.274 350.646 136.035C352.892 137.797 362.841 144.138 361.236 149.422C359.632 154.706 355.012 166.873 353.855 168.093C352.024 170.022 350.757 170.718 342.096 172.609C340.401 172.98 331.749 166.906 331.749 165.849C331.749 164.792 332.792 161.441 331.115 160.981C328.581 160.285 328.296 163.802 327.654 162.746C327.012 161.689 325.728 155.348 325.728 155.348Z" fill="#2F2E41"/>
<path d="M333.946 453.379L304.289 453.378V452.966C304.289 449.606 305.506 446.383 307.67 444.007C309.835 441.631 312.771 440.296 315.832 440.296H315.833L321.25 435.785L331.357 440.296L333.946 440.297L333.946 453.379Z" fill="#2F2E41"/>
<path d="M488.107 454H2.49678C2.25987 454 2.03268 453.897 1.86516 453.713C1.69764 453.529 1.60352 453.28 1.60352 453.02C1.60352 452.76 1.69764 452.51 1.86516 452.326C2.03268 452.142 2.25987 452.039 2.49678 452.039H488.107C488.344 452.039 488.571 452.142 488.738 452.326C488.906 452.51 489 452.76 489 453.02C489 453.28 488.906 453.529 488.738 453.713C488.571 453.897 488.344 454 488.107 454Z" fill="#CACACA"/>
</g>
<defs>
<clipPath id="clip0_135_869">
<rect width="489" height="454" fill="white"/>
</clipPath>
</defs>
</svg>
