<svg width="732" height="437" viewBox="0 0 732 437" fill="none" xmlns="http://www.w3.org/2000/svg">
<g clip-path="url(#clip0_133_735)">
<path d="M43.1108 334.772C21.5754 326.938 2.88125 308.198 0.509766 285.405C21.416 298.968 46.4459 304.7 71.171 301.585C80.702 300.349 91.1742 297.982 99.3303 303.066C104.405 306.23 107.556 311.846 109.001 317.649C110.447 323.452 110.381 329.51 110.308 335.489L110.978 336.823C88.482 341.19 64.6462 342.606 43.1108 334.772Z" fill="#F0F0F0"/>
<path d="M0.977888 285.291C11.9523 300.762 27.5225 312.382 45.4767 318.5C49.3185 319.885 53.3546 320.657 57.4366 320.786C61.417 320.783 65.324 319.714 68.7517 317.69C71.9855 315.868 75.0823 313.629 78.7029 312.624C80.5638 312.137 82.5067 312.049 84.404 312.366C86.3013 312.683 88.1102 313.397 89.7122 314.462C93.7727 317.011 96.6751 320.867 99.3823 324.737C102.388 329.034 105.442 333.544 110.134 336.153C110.703 336.469 110.179 337.333 109.612 337.017C101.448 332.479 98.4253 322.853 91.4765 317C88.2341 314.27 84.1491 312.5 79.8641 313.382C76.117 314.153 72.9216 316.459 69.6632 318.333C66.3484 320.356 62.5886 321.537 58.7123 321.772C54.6369 321.852 50.5778 321.237 46.7086 319.955C37.9519 317.206 29.6817 313.098 22.201 307.781C13.6298 301.76 6.1517 294.317 0.0903148 285.774C-0.284625 285.245 0.605398 284.766 0.977888 285.292V285.291Z" fill="white"/>
<path d="M39.5799 316.87C38.1445 319.743 35.7347 322.012 32.7806 323.272C29.8266 324.533 26.5208 324.702 23.4536 323.75C22.8336 323.555 23.1072 322.582 23.728 322.777C26.5825 323.669 29.6619 323.511 32.4103 322.332C35.1587 321.153 37.3951 319.03 38.7158 316.347C39.0035 315.764 39.866 316.291 39.5799 316.87V316.87Z" fill="white"/>
<path d="M67.2343 318.83C65.2121 312.584 60.91 307.33 55.1859 304.115C54.6185 303.797 55.1419 302.933 55.7087 303.251C61.6591 306.608 66.1249 312.085 68.215 318.589C68.4138 319.209 67.432 319.447 67.2343 318.83Z" fill="white"/>
<path d="M14.7712 301.06C15.5582 300.064 16.0856 298.888 16.3059 297.638C16.5262 296.388 16.4326 295.103 16.0334 293.898C15.8269 293.281 16.8089 293.043 17.0141 293.657C17.4489 294.99 17.5506 296.409 17.3102 297.791C17.0699 299.173 16.4949 300.475 15.6353 301.583C15.5631 301.694 15.4512 301.774 15.3224 301.805C15.1935 301.837 15.0575 301.818 14.9419 301.753C14.8278 301.684 14.7459 301.572 14.7139 301.442C14.682 301.312 14.7025 301.175 14.7712 301.06V301.06Z" fill="white"/>
<path d="M54.863 230.035C55.003 230.417 55.1429 230.798 55.291 231.182C57.1989 236.305 59.5198 241.265 62.2308 246.012C62.4346 246.382 62.6467 246.754 62.8607 247.118C69.5141 258.485 78.22 268.517 88.5359 276.706C92.6438 279.961 96.9934 282.898 101.547 285.493C107.836 289.076 114.94 292.461 119.542 297.756C120.029 298.304 120.481 298.88 120.896 299.483L112.554 335.902C112.493 335.975 112.441 336.05 112.381 336.124L112.114 337.593C111.87 337.476 111.619 337.349 111.375 337.231C111.233 337.164 111.093 337.088 110.951 337.021C110.857 336.973 110.763 336.925 110.675 336.888C110.644 336.872 110.613 336.856 110.59 336.842C110.502 336.804 110.425 336.76 110.345 336.725C108.942 336.018 107.541 335.301 106.142 334.573C106.134 334.571 106.134 334.571 106.128 334.561C95.418 329.112 85.3926 322.413 76.2615 314.602C75.9922 314.366 75.7145 314.127 75.449 313.874C71.4324 310.306 67.7141 306.415 64.3314 302.242C62.4865 299.95 60.7587 297.567 59.1548 295.101C55.0227 288.72 51.9199 281.73 49.9602 274.385C46.0556 259.744 46.8771 244.017 54.2871 231.022C54.4769 230.69 54.6649 230.365 54.863 230.035Z" fill="#F0F0F0"/>
<path d="M55.3073 230.223C54.7552 249.183 60.1913 267.834 70.8434 283.529C73.0766 286.948 75.8347 289.994 79.0164 292.555C82.1964 294.949 85.9594 296.448 89.9146 296.896C93.594 297.387 97.4146 297.464 100.91 298.842C102.689 299.574 104.293 300.673 105.618 302.068C106.942 303.463 107.956 305.123 108.594 306.937C110.301 311.418 110.297 316.244 110.129 320.964C109.942 326.205 109.664 331.645 111.84 336.553C112.104 337.147 111.166 337.521 110.903 336.928C107.117 328.389 110.499 318.883 108.474 310.027C107.53 305.894 105.334 302.022 101.381 300.146C97.9248 298.506 93.985 298.424 90.2553 297.958C86.3905 297.577 82.6776 296.257 79.4411 294.11C76.1393 291.72 73.2683 288.786 70.9512 285.432C65.614 277.966 61.4841 269.706 58.7125 260.957C55.494 250.989 54.0044 240.544 54.3082 230.073C54.3272 229.425 55.3262 229.579 55.3072 230.223L55.3073 230.223Z" fill="white"/>
<path d="M67.1144 278.677C64.2386 280.107 60.9482 280.468 57.8309 279.696C54.7135 278.923 51.9723 277.068 50.0965 274.461C49.7188 273.932 50.5228 273.32 50.901 273.85C52.6432 276.281 55.1969 278.009 58.1012 278.722C61.0056 279.435 64.0692 279.087 66.7392 277.74C67.3198 277.447 67.6917 278.387 67.1144 278.677Z" fill="white"/>
<path d="M88.015 296.892C90.1609 290.688 89.8893 283.902 87.2546 277.889C86.993 277.293 87.9311 276.919 88.1923 277.514C90.9224 283.776 91.1906 290.838 88.9434 297.29C88.7288 297.905 87.8015 297.504 88.015 296.892Z" fill="white"/>
<path d="M56.8265 251.118C58.0544 250.796 59.1834 250.175 60.1119 249.309C61.0404 248.444 61.7395 247.361 62.1462 246.159C62.353 245.542 63.28 245.944 63.0746 246.557C62.619 247.883 61.8456 249.078 60.8218 250.036C59.798 250.995 58.5551 251.688 57.2016 252.055C57.0769 252.101 56.9397 252.097 56.8178 252.044C56.6958 251.992 56.5983 251.896 56.5451 251.774C56.4961 251.65 56.4981 251.511 56.5508 251.388C56.6035 251.265 56.7025 251.168 56.8264 251.118H56.8265Z" fill="white"/>
<path d="M694.929 334.02C715.339 323.598 731.587 302.702 731.139 279.791C712.059 295.821 687.923 304.585 663.003 304.533C653.392 304.478 642.708 303.417 635.239 309.465C630.591 313.228 628.155 319.189 627.434 325.125C626.713 331.062 627.522 337.066 628.33 342.991L627.829 344.397C650.691 345.966 674.52 344.442 694.929 334.02Z" fill="#F0F0F0"/>
<path d="M730.66 279.735C721.671 296.438 707.647 309.883 690.581 318.162C686.938 320.009 683.028 321.271 678.992 321.9C675.042 322.386 671.033 321.806 667.383 320.219C663.949 318.808 660.601 316.966 656.884 316.414C654.978 316.16 653.039 316.311 651.195 316.859C649.351 317.406 647.643 318.338 646.184 319.591C642.468 322.62 640.062 326.804 637.851 330.978C635.396 335.611 632.919 340.463 628.583 343.628C628.058 344.012 628.684 344.805 629.208 344.422C636.752 338.914 638.569 328.99 644.745 322.328C647.628 319.219 651.464 316.96 655.825 317.309C659.638 317.614 663.093 319.51 666.557 320.969C670.095 322.569 673.972 323.279 677.848 323.036C681.902 322.614 685.855 321.505 689.537 319.757C697.889 315.953 705.592 310.859 712.362 304.663C720.128 297.634 726.635 289.328 731.6 280.105C731.907 279.534 730.965 279.168 730.66 279.735Z" fill="white"/>
<path d="M696.234 315.819C698.012 318.494 700.682 320.45 703.769 321.337C706.855 322.225 710.157 321.986 713.084 320.664C713.675 320.395 713.284 319.463 712.692 319.733C709.969 320.969 706.893 321.191 704.021 320.359C701.148 319.527 698.668 317.695 697.027 315.194C696.67 314.651 695.879 315.28 696.234 315.819Z" fill="white"/>
<path d="M669.031 321.164C670.27 314.717 673.893 308.973 679.179 305.079C679.703 304.694 679.077 303.901 678.554 304.286C673.061 308.348 669.302 314.333 668.028 321.045C667.907 321.685 668.91 321.8 669.031 321.164H669.031Z" fill="white"/>
<path d="M718.909 297.08C718.006 296.188 717.338 295.086 716.965 293.873C716.593 292.659 716.528 291.372 716.776 290.127C716.905 289.489 715.901 289.375 715.773 290.008C715.505 291.385 715.579 292.806 715.987 294.148C716.396 295.49 717.126 296.711 718.116 297.705C718.201 297.806 718.322 297.872 718.454 297.887C718.585 297.903 718.718 297.868 718.825 297.789C718.929 297.706 718.997 297.585 719.013 297.452C719.028 297.319 718.991 297.185 718.909 297.08H718.909Z" fill="white"/>
<path d="M670.392 231.521C670.3 231.917 670.208 232.313 670.108 232.713C668.844 238.031 667.151 243.238 665.044 248.282C664.887 248.675 664.722 249.07 664.555 249.458C659.349 261.556 651.942 272.583 642.711 281.978C639.034 285.713 635.079 289.162 630.879 292.297C625.078 296.626 618.444 300.858 614.527 306.679C614.112 307.282 613.734 307.91 613.396 308.56L626.151 343.676C626.22 343.742 626.282 343.81 626.351 343.876L626.796 345.301C627.024 345.155 627.257 344.998 627.485 344.851C627.617 344.767 627.747 344.675 627.88 344.59C627.967 344.531 628.055 344.472 628.137 344.424C628.166 344.405 628.195 344.385 628.216 344.368C628.299 344.32 628.37 344.267 628.444 344.222C629.75 343.348 631.053 342.464 632.351 341.569C632.359 341.566 632.359 341.566 632.364 341.556C642.323 334.832 651.449 326.951 659.551 318.078C659.789 317.81 660.035 317.539 660.267 317.255C663.815 313.22 667.027 308.902 669.871 304.344C671.42 301.843 672.842 299.266 674.13 296.621C677.447 289.781 679.667 282.462 680.709 274.933C682.784 259.922 680.036 244.415 671.085 232.43C670.856 232.124 670.629 231.825 670.392 231.521Z" fill="#F0F0F0"/>
<path d="M669.974 231.762C672.853 250.511 669.751 269.689 661.108 286.574C659.312 290.242 656.95 293.604 654.107 296.536C651.245 299.303 647.695 301.253 643.825 302.184C640.234 303.124 636.452 303.67 633.152 305.466C631.476 306.411 630.019 307.7 628.877 309.247C627.734 310.794 626.931 312.566 626.521 314.445C625.378 319.101 625.975 323.891 626.723 328.554C627.552 333.732 628.496 339.097 626.94 344.235C626.751 344.857 627.728 345.113 627.917 344.492C630.624 335.552 626.099 326.534 627.02 317.496C627.45 313.279 629.153 309.166 632.845 306.819C636.073 304.766 639.973 304.2 643.617 303.28C647.406 302.427 650.928 300.66 653.877 298.132C656.86 295.354 659.348 292.089 661.235 288.476C665.614 280.41 668.698 271.706 670.373 262.682C672.342 252.394 672.536 241.845 670.948 231.491C670.849 230.85 669.876 231.126 669.974 231.762Z" fill="white"/>
<path d="M664.212 281.301C667.242 282.366 670.551 282.32 673.55 281.17C676.549 280.021 679.042 277.842 680.583 275.025C680.892 274.454 680.019 273.945 679.709 274.517C678.279 277.144 675.957 279.172 673.162 280.237C670.368 281.302 667.284 281.333 664.469 280.324C663.857 280.106 663.603 281.084 664.212 281.301Z" fill="white"/>
<path d="M645.708 301.946C642.816 296.053 642.251 289.285 644.127 282.994C644.313 282.371 643.336 282.114 643.15 282.737C641.211 289.288 641.812 296.329 644.836 302.455C645.124 303.039 645.995 302.527 645.708 301.946Z" fill="white"/>
<path d="M671.035 252.686C669.776 252.518 668.58 252.04 667.552 251.295C666.524 250.55 665.697 249.562 665.146 248.419C664.865 247.831 663.994 248.344 664.273 248.927C664.888 250.188 665.803 251.278 666.937 252.104C668.07 252.929 669.389 253.464 670.778 253.662C670.907 253.692 671.043 253.671 671.157 253.604C671.272 253.538 671.357 253.43 671.394 253.302C671.428 253.173 671.409 253.036 671.341 252.92C671.274 252.804 671.164 252.72 671.035 252.686V252.686Z" fill="white"/>
<path d="M637.329 14.9998H493.539V24.2498C493.537 24.7234 493.7 25.1831 494 25.5498C493.71 32.7798 493.539 42.0098 493.539 52.0398V299.34C493.539 322.52 494.469 341.38 495.609 341.38H635.259C636.399 341.38 637.329 322.52 637.329 299.34V52.0398C637.329 42.0098 637.159 32.7798 636.869 25.5498C637.169 25.183 637.331 24.7234 637.329 24.2498L637.329 14.9998Z" fill="white"/>
<path d="M635.259 342.38H495.609C494.521 342.38 493.802 342.38 493.148 329.102C492.755 321.133 492.539 310.563 492.539 299.34V52.04C492.539 42.3462 492.703 32.9243 493 25.5098C493.186 21.0581 493.399 17.4922 493.634 14.9097C494.093 9.854 494.53 9 495.609 9H635.259C636.339 9 636.775 9.854 637.235 14.9097C637.47 17.5019 637.683 21.0679 637.868 25.5078L637.868 25.5098C638.166 32.9165 638.329 42.3384 638.329 52.04V299.34C638.329 310.564 638.113 321.134 637.72 329.102C637.067 342.38 636.348 342.38 635.259 342.38ZM496.177 340.38H634.691C635.415 337.647 636.329 322.81 636.329 299.34V52.04C636.329 42.3647 636.166 32.9722 635.87 25.5918H635.87C635.686 21.1836 635.475 17.6504 635.243 15.0903C635.154 13.7152 634.966 12.3483 634.682 11H496.187C495.902 12.3483 495.715 13.7152 495.625 15.0903C495.394 17.6406 495.183 21.1738 494.999 25.5918C494.702 32.9785 494.539 42.3721 494.539 52.04V299.34C494.539 322.809 495.454 337.647 496.177 340.38Z" fill="#E4E4E4"/>
<path d="M635.259 9.99976H495.609C495.061 10.0008 494.535 10.2192 494.147 10.6072C493.759 10.9952 493.54 11.5211 493.539 12.0698V24.2498C493.537 24.7234 493.7 25.1831 494 25.5498C494.194 25.7896 494.439 25.9831 494.718 26.1162C494.996 26.2494 495.301 26.3189 495.609 26.3198H635.259C635.568 26.3189 635.873 26.2493 636.151 26.1161C636.429 25.983 636.675 25.7895 636.869 25.5498C637.169 25.183 637.331 24.7234 637.329 24.2498V12.0698C637.328 11.5211 637.11 10.9952 636.722 10.6072C636.334 10.2193 635.808 10.0008 635.259 9.99976Z" fill="#CACACA"/>
<path d="M505.559 20.505C507.182 20.505 508.498 19.1889 508.498 17.5654C508.498 15.9418 507.182 14.6257 505.559 14.6257C503.935 14.6257 502.619 15.9418 502.619 17.5654C502.619 19.1889 503.935 20.505 505.559 20.505Z" fill="white"/>
<path d="M516.717 20.505C518.34 20.505 519.657 19.1889 519.657 17.5654C519.657 15.9418 518.34 14.6257 516.717 14.6257C515.093 14.6257 513.777 15.9418 513.777 17.5654C513.777 19.1889 515.093 20.505 516.717 20.505Z" fill="white"/>
<path d="M527.875 20.505C529.499 20.505 530.815 19.1889 530.815 17.5654C530.815 15.9418 529.499 14.6257 527.875 14.6257C526.252 14.6257 524.936 15.9418 524.936 17.5654C524.936 19.1889 526.252 20.505 527.875 20.505Z" fill="white"/>
<path d="M624.329 13.6399H611.479C611.228 13.6416 610.987 13.7422 610.809 13.92C610.632 14.0978 610.531 14.3385 610.53 14.5899C610.526 14.733 610.56 14.8746 610.63 14.9999C610.706 15.1609 610.826 15.2971 610.976 15.3927C611.127 15.4882 611.301 15.5393 611.479 15.5399H624.329C624.509 15.5408 624.686 15.4905 624.838 15.3949C624.99 15.2992 625.112 15.1622 625.19 14.9999C625.251 14.872 625.282 14.7317 625.28 14.5899C625.28 14.4651 625.255 14.3415 625.207 14.2262C625.16 14.1109 625.09 14.0062 625.001 13.9179C624.913 13.8297 624.808 13.7597 624.693 13.712C624.578 13.6643 624.454 13.6398 624.329 13.6399Z" fill="white"/>
<path d="M624.329 17.21H611.479C611.227 17.21 610.986 17.31 610.808 17.4882C610.629 17.6664 610.529 17.908 610.529 18.16C610.529 18.4119 610.629 18.6536 610.808 18.8317C610.986 19.0099 611.227 19.11 611.479 19.11H624.329C624.581 19.11 624.823 19.0099 625.001 18.8317C625.179 18.6536 625.279 18.4119 625.279 18.16C625.279 17.908 625.179 17.6664 625.001 17.4882C624.823 17.31 624.581 17.21 624.329 17.21Z" fill="white"/>
<path d="M624.329 20.78H611.479C611.227 20.78 610.986 20.8801 610.808 21.0583C610.629 21.2364 610.529 21.4781 610.529 21.73C610.529 21.982 610.629 22.2236 610.808 22.4018C610.986 22.5799 611.227 22.68 611.479 22.68H624.329C624.581 22.68 624.823 22.5799 625.001 22.4018C625.179 22.2236 625.279 21.982 625.279 21.73C625.279 21.4781 625.179 21.2364 625.001 21.0583C624.823 20.8801 624.581 20.78 624.329 20.78Z" fill="white"/>
<path d="M579.329 53.02H552.889C551.563 53.0205 550.291 53.5475 549.354 54.4851C548.416 55.4226 547.889 56.6941 547.889 58.02V80.92C547.891 82.2454 548.418 83.5159 549.356 84.4531C550.293 85.3903 551.563 85.9178 552.889 85.92H579.329C580.654 85.9162 581.923 85.3881 582.86 84.4513C583.797 83.5145 584.325 82.2449 584.329 80.92V58.02C584.326 56.6946 583.799 55.4241 582.862 54.4869C581.925 53.5497 580.654 53.0222 579.329 53.02Z" fill="#3426F8"/>
<path d="M612.18 100.88H520.03C519.428 100.88 518.85 101.119 518.425 101.545C517.999 101.97 517.76 102.548 517.76 103.15C517.76 103.752 517.999 104.329 518.425 104.755C518.85 105.181 519.428 105.42 520.03 105.42H612.18C612.782 105.42 613.359 105.181 613.785 104.755C614.21 104.329 614.45 103.752 614.45 103.15C614.45 102.548 614.21 101.97 613.785 101.545C613.359 101.119 612.782 100.88 612.18 100.88Z" fill="#E4E4E4"/>
<path d="M555.03 111.52H520.03C519.428 111.52 518.85 111.759 518.425 112.185C517.999 112.611 517.76 113.188 517.76 113.79C517.76 114.392 517.999 114.969 518.425 115.395C518.85 115.821 519.428 116.06 520.03 116.06H555.03C555.632 116.06 556.209 115.821 556.635 115.395C557.061 114.969 557.3 114.392 557.3 113.79C557.3 113.188 557.061 112.611 556.635 112.185C556.209 111.759 555.632 111.52 555.03 111.52Z" fill="#E4E4E4"/>
<path d="M579.329 152.02H552.889C551.563 152.021 550.291 152.548 549.354 153.485C548.416 154.423 547.889 155.694 547.889 157.02V179.92C547.891 181.245 548.418 182.516 549.356 183.453C550.293 184.39 551.563 184.918 552.889 184.92H579.329C580.654 184.916 581.923 184.388 582.86 183.451C583.797 182.514 584.325 181.245 584.329 179.92V157.02C584.326 155.695 583.799 154.424 582.862 153.487C581.925 152.55 580.654 152.022 579.329 152.02Z" fill="#3426F8"/>
<path d="M612.18 199.88H520.03C519.428 199.88 518.85 200.119 518.425 200.545C517.999 200.97 517.76 201.548 517.76 202.15C517.76 202.752 517.999 203.329 518.425 203.755C518.85 204.181 519.428 204.42 520.03 204.42H612.18C612.782 204.42 613.359 204.181 613.785 203.755C614.21 203.329 614.45 202.752 614.45 202.15C614.45 201.548 614.21 200.97 613.785 200.545C613.359 200.119 612.782 199.88 612.18 199.88Z" fill="#E4E4E4"/>
<path d="M555.03 210.52H520.03C519.428 210.52 518.85 210.759 518.425 211.185C517.999 211.611 517.76 212.188 517.76 212.79C517.76 213.392 517.999 213.969 518.425 214.395C518.85 214.821 519.428 215.06 520.03 215.06H555.03C555.632 215.06 556.209 214.821 556.635 214.395C557.061 213.969 557.3 213.392 557.3 212.79C557.3 212.188 557.061 211.611 556.635 211.185C556.209 210.759 555.632 210.52 555.03 210.52Z" fill="#E4E4E4"/>
<path d="M579.329 251.02H552.889C551.563 251.021 550.291 251.548 549.354 252.485C548.416 253.423 547.889 254.694 547.889 256.02V278.92C547.891 280.245 548.418 281.516 549.356 282.453C550.293 283.39 551.563 283.918 552.889 283.92H579.329C580.654 283.916 581.923 283.388 582.86 282.451C583.797 281.514 584.325 280.245 584.329 278.92V256.02C584.326 254.695 583.799 253.424 582.862 252.487C581.925 251.55 580.654 251.022 579.329 251.02Z" fill="#3426F8"/>
<path d="M612.18 298.88H520.03C519.428 298.88 518.85 299.119 518.425 299.545C517.999 299.97 517.76 300.548 517.76 301.15C517.76 301.752 517.999 302.329 518.425 302.755C518.85 303.181 519.428 303.42 520.03 303.42H612.18C612.782 303.42 613.359 303.181 613.785 302.755C614.21 302.329 614.45 301.752 614.45 301.15C614.45 300.548 614.21 299.97 613.785 299.545C613.359 299.119 612.782 298.88 612.18 298.88Z" fill="#E4E4E4"/>
<path d="M555.03 309.52H520.03C519.428 309.52 518.85 309.759 518.425 310.185C517.999 310.611 517.76 311.188 517.76 311.79C517.76 312.392 517.999 312.969 518.425 313.395C518.85 313.821 519.428 314.06 520.03 314.06H555.03C555.632 314.06 556.209 313.821 556.635 313.395C557.061 312.969 557.3 312.392 557.3 311.79C557.3 311.188 557.061 310.611 556.635 310.185C556.209 309.759 555.632 309.52 555.03 309.52Z" fill="#E4E4E4"/>
<path d="M454.329 3.06976C454.328 2.52111 454.11 1.99523 453.722 1.60725C453.334 1.21928 452.808 1.00083 452.259 0.999756H82.6094C82.0607 1.00082 81.5348 1.21923 81.1467 1.60719C80.7587 1.99515 80.5402 2.52106 80.5391 3.06976V15.2498C80.5373 15.7568 80.7266 16.246 81.0693 16.6198C80.7393 24.8898 80.5391 35.7898 80.5391 47.7298V322.64C80.5391 348.42 81.4692 369.38 82.6094 369.38H452.259C453.399 369.38 454.329 348.42 454.329 322.64V47.7298C454.329 35.7898 454.129 24.8898 453.799 16.6198C454.142 16.2459 454.331 15.7568 454.329 15.2498V3.06976Z" fill="white"/>
<path d="M452.259 370.38H82.6094C81.4794 370.38 80.7972 370.38 80.1476 355.722C79.7551 346.867 79.5391 335.118 79.5391 322.64V47.73C79.5391 36.2227 79.7277 25.1602 80.0702 16.5801C80.7275 1.33514e-05 81.4762 0 82.6094 0H452.259C453.392 0 454.141 0.00294304 454.799 16.5801C455.141 25.1524 455.329 36.2149 455.329 47.73V322.64C455.329 335.119 455.113 346.867 454.721 355.722C454.071 370.38 453.389 370.38 452.259 370.38ZM83.1931 368.38H451.676C452.494 365.245 453.329 347.64 453.329 322.64V47.73C453.329 36.2407 453.141 25.2061 452.8 16.6602V16.6597C452.384 6.15626 451.897 2.95996 451.665 2H83.204C82.9714 2.96 82.4851 6.15626 82.0685 16.6597C81.7271 25.2144 81.5391 36.2485 81.5391 47.73V322.64C81.5391 347.64 82.3747 365.244 83.1931 368.38Z" fill="#E4E4E4"/>
<path d="M452.259 0.999756H82.6094C82.0607 1.00082 81.5348 1.21923 81.1467 1.60719C80.7587 1.99515 80.5402 2.52106 80.5391 3.06976V15.2498C80.5373 15.7568 80.7266 16.246 81.0693 16.6198C81.2615 16.8392 81.4983 17.0152 81.7638 17.1359C82.0294 17.2566 82.3176 17.3193 82.6094 17.3198H452.259C452.551 17.3193 452.839 17.2566 453.105 17.1359C453.37 17.0152 453.607 16.8392 453.799 16.6198C454.142 16.2459 454.331 15.7568 454.329 15.2498V3.06976C454.328 2.52113 454.11 1.99525 453.722 1.60728C453.334 1.21931 452.808 1.00086 452.259 0.999756Z" fill="#CACACA"/>
<path d="M92.5588 11.505C94.1823 11.505 95.4984 10.1889 95.4984 8.56535C95.4984 6.94184 94.1823 5.62573 92.5588 5.62573C90.9353 5.62573 89.6191 6.94184 89.6191 8.56535C89.6191 10.1889 90.9353 11.505 92.5588 11.505Z" fill="white"/>
<path d="M103.717 11.505C105.34 11.505 106.657 10.1889 106.657 8.56535C106.657 6.94184 105.34 5.62573 103.717 5.62573C102.093 5.62573 100.777 6.94184 100.777 8.56535C100.777 10.1889 102.093 11.505 103.717 11.505Z" fill="white"/>
<path d="M114.875 11.505C116.499 11.505 117.815 10.1889 117.815 8.56535C117.815 6.94184 116.499 5.62573 114.875 5.62573C113.252 5.62573 111.936 6.94184 111.936 8.56535C111.936 10.1889 113.252 11.505 114.875 11.505Z" fill="white"/>
<path d="M441.329 4.63989H428.479C428.227 4.63989 427.986 4.73998 427.808 4.91814C427.629 5.0963 427.529 5.33793 427.529 5.58989C427.529 5.84185 427.629 6.08348 427.808 6.26164C427.986 6.4398 428.227 6.5399 428.479 6.5399H441.329C441.581 6.5399 441.823 6.4398 442.001 6.26164C442.179 6.08348 442.279 5.84185 442.279 5.58989C442.279 5.33793 442.179 5.0963 442.001 4.91814C441.823 4.73998 441.581 4.63989 441.329 4.63989Z" fill="white"/>
<path d="M441.329 8.20996H428.479C428.227 8.20996 427.986 8.31005 427.808 8.4882C427.629 8.66636 427.529 8.908 427.529 9.15996C427.529 9.41191 427.629 9.65355 427.808 9.83171C427.986 10.0099 428.227 10.11 428.479 10.11H441.329C441.581 10.11 441.823 10.0099 442.001 9.83171C442.179 9.65355 442.279 9.41191 442.279 9.15996C442.279 8.908 442.179 8.66636 442.001 8.4882C441.823 8.31005 441.581 8.20996 441.329 8.20996Z" fill="white"/>
<path d="M441.329 11.78H428.479C428.227 11.78 427.986 11.8801 427.808 12.0583C427.629 12.2364 427.529 12.4781 427.529 12.73C427.529 12.982 427.629 13.2236 427.808 13.4018C427.986 13.5799 428.227 13.68 428.479 13.68H441.329C441.581 13.68 441.823 13.5799 442.001 13.4018C442.179 13.2236 442.279 12.982 442.279 12.73C442.279 12.4781 442.179 12.2364 442.001 12.0583C441.823 11.8801 441.581 11.78 441.329 11.78Z" fill="white"/>
<path d="M202.09 62.02H158.83C156.661 62.0227 154.582 62.8854 153.049 64.4189C151.516 65.9523 150.653 68.0314 150.65 70.2V107.67C150.653 109.839 151.516 111.918 153.049 113.451C154.582 114.985 156.661 115.847 158.83 115.85H202.09C204.259 115.847 206.338 114.985 207.871 113.451C209.405 111.918 210.267 109.839 210.27 107.67V70.2C210.267 68.0314 209.405 65.9523 207.871 64.4189C206.338 62.8854 204.259 62.0227 202.09 62.02Z" fill="#3426F8"/>
<path d="M380.518 76.51H229.738C228.753 76.51 227.808 76.9014 227.112 77.5981C226.415 78.2948 226.023 79.2397 226.023 80.225C226.023 81.2103 226.415 82.1552 227.112 82.8519C227.808 83.5486 228.753 83.94 229.738 83.94H380.518C381.503 83.94 382.448 83.5486 383.145 82.8519C383.842 82.1552 384.233 81.2103 384.233 80.225C384.233 79.2397 383.842 78.2948 383.145 77.5981C382.448 76.9014 381.503 76.51 380.518 76.51Z" fill="#E4E4E4"/>
<path d="M287.008 93.9199H229.738C228.753 93.9199 227.808 94.3113 227.112 95.008C226.415 95.7047 226.023 96.6496 226.023 97.6349C226.023 98.6202 226.415 99.5651 227.112 100.262C227.808 100.959 228.753 101.35 229.738 101.35H287.008C287.994 101.35 288.939 100.959 289.635 100.262C290.332 99.5651 290.723 98.6202 290.723 97.6349C290.723 96.6496 290.332 95.7047 289.635 95.008C288.939 94.3113 287.994 93.9199 287.008 93.9199Z" fill="#E4E4E4"/>
<path d="M202.09 162.02H158.83C156.661 162.023 154.582 162.885 153.049 164.419C151.516 165.952 150.653 168.031 150.65 170.2V207.67C150.653 209.839 151.516 211.918 153.049 213.451C154.582 214.985 156.661 215.847 158.83 215.85H202.09C204.259 215.847 206.338 214.985 207.871 213.451C209.405 211.918 210.267 209.839 210.27 207.67V170.2C210.267 168.031 209.405 165.952 207.871 164.419C206.338 162.885 204.259 162.023 202.09 162.02Z" fill="#3426F8"/>
<path d="M380.518 176.51H229.738C228.753 176.51 227.808 176.901 227.112 177.598C226.415 178.295 226.023 179.24 226.023 180.225C226.023 181.21 226.415 182.155 227.112 182.852C227.808 183.549 228.753 183.94 229.738 183.94H380.518C381.503 183.94 382.448 183.549 383.145 182.852C383.842 182.155 384.233 181.21 384.233 180.225C384.233 179.24 383.842 178.295 383.145 177.598C382.448 176.901 381.503 176.51 380.518 176.51Z" fill="#E4E4E4"/>
<path d="M287.008 193.92H229.738C228.753 193.92 227.808 194.311 227.112 195.008C226.415 195.705 226.023 196.65 226.023 197.635C226.023 198.62 226.415 199.565 227.112 200.262C227.808 200.959 228.753 201.35 229.738 201.35H287.008C287.994 201.35 288.939 200.959 289.635 200.262C290.332 199.565 290.723 198.62 290.723 197.635C290.723 196.65 290.332 195.705 289.635 195.008C288.939 194.311 287.994 193.92 287.008 193.92Z" fill="#E4E4E4"/>
<path d="M202.09 262.02H158.83C156.661 262.023 154.582 262.885 153.049 264.419C151.516 265.952 150.653 268.031 150.65 270.2V307.67C150.653 309.839 151.516 311.918 153.049 313.451C154.582 314.985 156.661 315.847 158.83 315.85H202.09C204.259 315.847 206.338 314.985 207.871 313.451C209.405 311.918 210.267 309.839 210.27 307.67V270.2C210.267 268.031 209.405 265.952 207.871 264.419C206.338 262.885 204.259 262.023 202.09 262.02Z" fill="#3426F8"/>
<path d="M380.518 276.51H229.738C228.753 276.51 227.808 276.901 227.112 277.598C226.415 278.295 226.023 279.24 226.023 280.225C226.023 281.21 226.415 282.155 227.112 282.852C227.808 283.549 228.753 283.94 229.738 283.94H380.518C381.503 283.94 382.448 283.549 383.145 282.852C383.842 282.155 384.233 281.21 384.233 280.225C384.233 279.24 383.842 278.295 383.145 277.598C382.448 276.901 381.503 276.51 380.518 276.51Z" fill="#E4E4E4"/>
<path d="M287.008 293.92H229.738C228.753 293.92 227.808 294.311 227.112 295.008C226.415 295.705 226.023 296.65 226.023 297.635C226.023 298.62 226.415 299.565 227.112 300.262C227.808 300.959 228.753 301.35 229.738 301.35H287.008C287.994 301.35 288.939 300.959 289.635 300.262C290.332 299.565 290.723 298.62 290.723 297.635C290.723 296.65 290.332 295.705 289.635 295.008C288.939 294.311 287.994 293.92 287.008 293.92Z" fill="#E4E4E4"/>
<path d="M518.262 435.38H270.613C269.472 435.38 268.543 417.83 268.543 396.257V166.123C268.543 144.549 269.472 126.999 270.613 126.999H518.262C519.404 126.999 520.333 144.549 520.333 166.123V396.257C520.333 417.83 519.404 435.38 518.262 435.38Z" fill="white"/>
<path d="M518.262 436.38H270.614C269.566 436.38 268.809 436.38 268.152 423.961C267.759 416.546 267.543 406.708 267.543 396.256V166.123C267.543 155.672 267.759 145.833 268.152 138.418C268.809 125.999 269.566 125.999 270.614 125.999H518.262C519.31 125.999 520.067 125.999 520.724 138.418C521.117 145.833 521.333 155.672 521.333 166.123V396.256C521.333 406.708 521.117 416.546 520.724 423.961C520.067 436.38 519.31 436.38 518.262 436.38ZM271.167 434.38H517.709C518.427 431.789 519.333 417.986 519.333 396.256V166.123C519.333 144.393 518.427 130.59 517.709 127.999H271.167C270.449 130.59 269.543 144.393 269.543 166.123V396.256C269.543 417.986 270.449 431.789 271.167 434.38Z" fill="#E4E4E4"/>
<path d="M518.262 143.32H270.613C270.065 143.319 269.538 143.101 269.15 142.713C268.762 142.324 268.544 141.798 268.543 141.249V129.07C268.544 128.521 268.762 127.995 269.15 127.606C269.538 127.218 270.065 127 270.613 126.999H518.262C518.811 127 519.338 127.218 519.726 127.606C520.114 127.995 520.332 128.521 520.333 129.07V141.249C520.332 141.798 520.114 142.324 519.726 142.713C519.338 143.101 518.811 143.319 518.262 143.32Z" fill="#CACACA"/>
<path d="M280.559 137.505C282.182 137.505 283.498 136.189 283.498 134.565C283.498 132.942 282.182 131.626 280.559 131.626C278.935 131.626 277.619 132.942 277.619 134.565C277.619 136.189 278.935 137.505 280.559 137.505Z" fill="white"/>
<path d="M291.717 137.505C293.34 137.505 294.657 136.189 294.657 134.565C294.657 132.942 293.34 131.626 291.717 131.626C290.093 131.626 288.777 132.942 288.777 134.565C288.777 136.189 290.093 137.505 291.717 137.505Z" fill="white"/>
<path d="M302.875 137.505C304.499 137.505 305.815 136.189 305.815 134.565C305.815 132.942 304.499 131.626 302.875 131.626C301.252 131.626 299.936 132.942 299.936 134.565C299.936 136.189 301.252 137.505 302.875 137.505Z" fill="white"/>
<path d="M507.33 132.542H494.481C494.229 132.542 493.987 132.442 493.808 132.263C493.63 132.085 493.529 131.843 493.529 131.59C493.529 131.338 493.63 131.096 493.808 130.917C493.987 130.739 494.229 130.639 494.481 130.639H507.33C507.582 130.639 507.823 130.74 508.001 130.919C508.179 131.097 508.278 131.339 508.278 131.59C508.278 131.842 508.179 132.084 508.001 132.262C507.823 132.441 507.582 132.541 507.33 132.542Z" fill="white"/>
<path d="M507.33 136.111H494.481C494.229 136.111 493.987 136.011 493.808 135.832C493.63 135.654 493.529 135.412 493.529 135.159C493.529 134.907 493.63 134.665 493.808 134.486C493.987 134.308 494.229 134.208 494.481 134.208H507.33C507.582 134.208 507.824 134.308 508.003 134.486C508.181 134.665 508.281 134.907 508.281 135.159C508.281 135.412 508.181 135.654 508.003 135.832C507.824 136.011 507.582 136.111 507.33 136.111Z" fill="white"/>
<path d="M507.33 139.68H494.481C494.229 139.68 493.987 139.58 493.808 139.401C493.63 139.223 493.529 138.981 493.529 138.728C493.529 138.476 493.63 138.234 493.808 138.055C493.987 137.877 494.229 137.777 494.481 137.777H507.33C507.582 137.777 507.823 137.878 508.001 138.056C508.179 138.235 508.278 138.476 508.278 138.728C508.278 138.98 508.179 139.222 508.001 139.4C507.823 139.579 507.582 139.679 507.33 139.68Z" fill="white"/>
<path d="M346.712 218.917H315.119C313.535 218.915 312.016 218.285 310.896 217.165C309.776 216.045 309.146 214.526 309.145 212.942V185.579C309.146 183.995 309.776 182.476 310.896 181.356C312.016 180.236 313.535 179.606 315.119 179.604H346.712C348.296 179.606 349.815 180.236 350.935 181.356C352.055 182.476 352.685 183.995 352.687 185.579V212.942C352.685 214.526 352.055 216.045 350.935 217.165C349.815 218.285 348.296 218.915 346.712 218.917Z" fill="#3426F8"/>
<path d="M477.018 195.616H366.908C366.188 195.616 365.498 195.33 364.99 194.821C364.481 194.313 364.195 193.623 364.195 192.903C364.195 192.184 364.481 191.494 364.99 190.985C365.498 190.477 366.188 190.191 366.908 190.191H477.018C477.738 190.191 478.428 190.477 478.936 190.985C479.445 191.494 479.731 192.184 479.731 192.903C479.731 193.623 479.445 194.313 478.936 194.821C478.428 195.33 477.738 195.616 477.018 195.616Z" fill="#E4E4E4"/>
<path d="M408.729 208.33H366.908C366.188 208.33 365.498 208.044 364.99 207.535C364.481 207.027 364.195 206.337 364.195 205.617C364.195 204.898 364.481 204.208 364.99 203.699C365.498 203.191 366.188 202.905 366.908 202.905H408.729C409.086 202.904 409.439 202.974 409.769 203.11C410.099 203.246 410.398 203.445 410.651 203.697C410.903 203.949 411.104 204.249 411.24 204.578C411.377 204.907 411.447 205.261 411.447 205.617C411.447 205.974 411.377 206.327 411.24 206.656C411.104 206.986 410.903 207.285 410.651 207.537C410.398 207.789 410.099 207.989 409.769 208.125C409.439 208.261 409.086 208.33 408.729 208.33Z" fill="#E4E4E4"/>
<path d="M346.712 299.917H315.119C313.535 299.915 312.016 299.285 310.896 298.165C309.776 297.045 309.146 295.526 309.145 293.942V266.579C309.146 264.995 309.776 263.476 310.896 262.356C312.016 261.236 313.535 260.606 315.119 260.604H346.712C348.296 260.606 349.815 261.236 350.935 262.356C352.055 263.476 352.685 264.995 352.687 266.579V293.942C352.685 295.526 352.055 297.045 350.935 298.165C349.815 299.285 348.296 299.915 346.712 299.917Z" fill="#3426F8"/>
<path d="M477.018 276.616H366.908C366.188 276.616 365.498 276.33 364.99 275.821C364.481 275.313 364.195 274.623 364.195 273.903C364.195 273.184 364.481 272.494 364.99 271.985C365.498 271.477 366.188 271.191 366.908 271.191H477.018C477.738 271.191 478.428 271.477 478.936 271.985C479.445 272.494 479.731 273.184 479.731 273.903C479.731 274.623 479.445 275.313 478.936 275.821C478.428 276.33 477.738 276.616 477.018 276.616Z" fill="#E4E4E4"/>
<path d="M408.729 289.33H366.908C366.188 289.33 365.498 289.044 364.99 288.535C364.481 288.027 364.195 287.337 364.195 286.617C364.195 285.898 364.481 285.208 364.99 284.699C365.498 284.191 366.188 283.905 366.908 283.905H408.729C409.086 283.904 409.439 283.974 409.769 284.11C410.099 284.246 410.398 284.445 410.651 284.697C410.903 284.949 411.104 285.249 411.24 285.578C411.377 285.907 411.447 286.261 411.447 286.617C411.447 286.974 411.377 287.327 411.24 287.656C411.104 287.986 410.903 288.285 410.651 288.537C410.398 288.789 410.099 288.989 409.769 289.125C409.439 289.261 409.086 289.33 408.729 289.33Z" fill="#E4E4E4"/>
<path d="M346.712 380.917H315.119C313.535 380.915 312.016 380.285 310.896 379.165C309.776 378.045 309.146 376.526 309.145 374.942V347.579C309.146 345.995 309.776 344.476 310.896 343.356C312.016 342.236 313.535 341.606 315.119 341.604H346.712C348.296 341.606 349.815 342.236 350.935 343.356C352.055 344.476 352.685 345.995 352.687 347.579V374.942C352.685 376.526 352.055 378.045 350.935 379.165C349.815 380.285 348.296 380.915 346.712 380.917Z" fill="#3426F8"/>
<path d="M477.018 357.616H366.908C366.188 357.616 365.498 357.33 364.99 356.821C364.481 356.313 364.195 355.623 364.195 354.903C364.195 354.184 364.481 353.494 364.99 352.985C365.498 352.477 366.188 352.191 366.908 352.191H477.018C477.738 352.191 478.428 352.477 478.936 352.985C479.445 353.494 479.731 354.184 479.731 354.903C479.731 355.623 479.445 356.313 478.936 356.821C478.428 357.33 477.738 357.616 477.018 357.616Z" fill="#E4E4E4"/>
<path d="M408.729 370.33H366.908C366.188 370.33 365.498 370.044 364.99 369.535C364.481 369.027 364.195 368.337 364.195 367.617C364.195 366.898 364.481 366.208 364.99 365.699C365.498 365.191 366.188 364.905 366.908 364.905H408.729C409.086 364.904 409.439 364.974 409.769 365.11C410.099 365.246 410.398 365.445 410.651 365.697C410.903 365.949 411.104 366.249 411.24 366.578C411.377 366.907 411.447 367.261 411.447 367.617C411.447 367.974 411.377 368.327 411.24 368.656C411.104 368.986 410.903 369.285 410.651 369.537C410.398 369.789 410.099 369.989 409.769 370.125C409.439 370.261 409.086 370.33 408.729 370.33Z" fill="#E4E4E4"/>
</g>
<defs>
<clipPath id="clip0_133_735">
<rect width="731.662" height="436.38" fill="white"/>
</clipPath>
</defs>
</svg>
