<svg width="157" height="45" viewBox="0 0 157 45" fill="none" xmlns="http://www.w3.org/2000/svg">
<circle cx="10.6742" cy="11.9851" r="5" transform="rotate(14.0451 10.6742 11.9851)" fill="#3426F8"/>
<circle cx="20.6013" cy="31.9665" r="5" transform="rotate(-167.105 20.6013 31.9665)" fill="#3426F8"/>
<circle cx="10.189" cy="22.1715" r="4" transform="rotate(14.0451 10.189 22.1715)" fill="#3426F8"/>
<circle cx="20.8842" cy="21.7726" r="4" transform="rotate(-167.105 20.8842 21.7726)" fill="#3426F8"/>
<circle cx="10.0655" cy="32.9645" r="3.5" transform="rotate(14.0451 10.0655 32.9645)" fill="#3426F8"/>
<circle cx="20.7913" cy="10.9795" r="3.5" transform="rotate(-167.105 20.7913 10.9795)" fill="#3426F8"/>
<path d="M33.3761 35.5V9.31818H44.1914C46.1516 9.31818 47.8434 9.67187 49.2667 10.3793C50.6985 11.0781 51.8022 12.0838 52.5778 13.3963C53.3533 14.7003 53.7411 16.2472 53.7411 18.0369C53.7411 19.8523 53.3448 21.3949 52.5522 22.6648C51.7596 23.9261 50.6346 24.8892 49.1772 25.554C47.7198 26.2102 45.994 26.5384 43.9996 26.5384H37.1602V21.5526H42.8235C43.7781 21.5526 44.5749 21.429 45.2141 21.1818C45.8619 20.9261 46.3519 20.5426 46.6843 20.0312C47.0167 19.5114 47.1829 18.8466 47.1829 18.0369C47.1829 17.2273 47.0167 16.5582 46.6843 16.0298C46.3519 15.4929 45.8619 15.0923 45.2141 14.8281C44.5664 14.5554 43.7695 14.419 42.8235 14.419H39.7042V35.5H33.3761ZM48.1161 23.5341L54.636 35.5H47.7326L41.3406 23.5341H48.1161ZM62.8754 35.5H56.0742L64.908 9.31818H73.3327L82.1665 35.5H75.3654L69.2163 15.9148H69.0117L62.8754 35.5ZM61.9677 25.196H76.1836V30.0028H61.9677V25.196ZM100.825 9.31818H107.14V26.206C107.14 28.1577 106.676 29.858 105.747 31.3068C104.818 32.7472 103.522 33.8636 101.86 34.6562C100.199 35.4403 98.2681 35.8324 96.0692 35.8324C93.8448 35.8324 91.9016 35.4403 90.2397 34.6562C88.5778 33.8636 87.2866 32.7472 86.3661 31.3068C85.4457 29.858 84.9854 28.1577 84.9854 26.206V9.31818H91.3136V25.6562C91.3136 26.5597 91.5096 27.3651 91.9016 28.0724C92.3022 28.7798 92.8604 29.3338 93.5764 29.7344C94.2923 30.1349 95.1232 30.3352 96.0692 30.3352C97.0153 30.3352 97.842 30.1349 98.5494 29.7344C99.2653 29.3338 99.8235 28.7798 100.224 28.0724C100.625 27.3651 100.825 26.5597 100.825 25.6562V9.31818ZM111.107 35.5V9.31818H117.435V30.3608H128.327V35.5H111.107ZM138.007 9.31818L142.789 17.5895H142.993L147.826 9.31818H154.908L147.007 22.4091L155.164 35.5H147.902L142.993 27.1392H142.789L137.88 35.5H130.669L138.787 22.4091L130.874 9.31818H138.007Z" fill="black"/>
</svg>
